%TF.GenerationSoftware,Altium Limited,Altium Designer,24.5.2 (23)*%
G04 Layer_Physical_Order=3*
G04 Layer_Color=128*
%FSLAX45Y45*%
%MOMM*%
%TF.SameCoordinates,627A3E5C-85DC-498E-B9C8-82595492641C*%
%TF.FilePolarity,Negative*%
%TF.FileFunction,Copper,L3,Inr,Plane*%
%TF.Part,Single*%
G01*
G75*
%TA.AperFunction,NonConductor*%
%ADD64C,1.01600*%
%TA.AperFunction,ViaPad*%
%ADD65C,4.41600*%
%TA.AperFunction,ComponentPad*%
%ADD66C,2.03600*%
%ADD67C,2.28600*%
%ADD68C,1.66600*%
%ADD69O,1.51600X2.61600*%
%ADD70O,1.51600X2.21600*%
%TA.AperFunction,ViaPad*%
%ADD71C,1.31600*%
%ADD72C,1.47320*%
D64*
X0Y254000D02*
G03*
X254000Y0I254000J0D01*
G01*
X6096000D02*
G03*
X6350000Y254000I0J254000D01*
G01*
Y6096000D02*
G03*
X6096000Y6350000I-254000J0D01*
G01*
X254000D02*
G03*
X0Y6096000I0J-254000D01*
G01*
X254000Y0D02*
X6096000D01*
X6350000Y254000D02*
Y6096000D01*
X254000Y6350000D02*
X6096000D01*
X0Y254000D02*
Y6096000D01*
D65*
X1206500Y5969000D02*
D03*
X5969000D02*
D03*
Y381000D02*
D03*
X381000D02*
D03*
D66*
X2032000Y1443000D02*
D03*
Y1143000D02*
D03*
Y843000D02*
D03*
X444500Y5478500D02*
D03*
Y5778500D02*
D03*
X4889500Y5842000D02*
D03*
X5189500D02*
D03*
X3492500D02*
D03*
X3792500D02*
D03*
X1143000Y1443000D02*
D03*
Y1143000D02*
D03*
Y843000D02*
D03*
X4318000Y1443000D02*
D03*
Y1143000D02*
D03*
Y843000D02*
D03*
X5207000Y843000D02*
D03*
Y1143000D02*
D03*
Y1443000D02*
D03*
D67*
X1836000Y1743000D02*
D03*
Y543000D02*
D03*
X248500Y5178500D02*
D03*
Y6078500D02*
D03*
X4589500Y6038000D02*
D03*
X5489500Y6038000D02*
D03*
X3192500Y6038000D02*
D03*
X4092500D02*
D03*
X1339000Y1743000D02*
D03*
Y543000D02*
D03*
X4514000Y1743000D02*
D03*
Y543000D02*
D03*
X5011000Y543000D02*
D03*
Y1743000D02*
D03*
D68*
X6032500Y4318000D02*
D03*
Y4572000D02*
D03*
X6032500Y4699000D02*
D03*
X5905501Y4191000D02*
D03*
X5905500Y4318001D02*
D03*
X5905500Y4445000D02*
D03*
X5905500Y4572000D02*
D03*
Y4699000D02*
D03*
X6032500Y4445000D02*
D03*
D69*
X6006600Y3429000D02*
D03*
D70*
X5791600Y3709000D02*
D03*
Y3149000D02*
D03*
D71*
X2346960Y3032760D02*
D03*
X1572260Y4884420D02*
D03*
X3568700Y5072380D02*
D03*
X3416300Y4767580D02*
D03*
X3098800Y2921000D02*
D03*
X3111500Y2438400D02*
D03*
X2882900D02*
D03*
X2997200D02*
D03*
X2598009Y1986280D02*
D03*
X3263900Y2057400D02*
D03*
X3517900D02*
D03*
X3644900D02*
D03*
X3441700Y2951480D02*
D03*
X3439160Y3030220D02*
D03*
X3187700Y2903220D02*
D03*
X2908300Y2898140D02*
D03*
X2905760Y2976880D02*
D03*
X2885440Y2080260D02*
D03*
X2758440Y2042160D02*
D03*
X2644140Y2113280D02*
D03*
X3954780Y4030980D02*
D03*
X1727200Y6032500D02*
D03*
X2717800Y698500D02*
D03*
X2895600Y3924300D02*
D03*
X3276600Y1587500D02*
D03*
X3594100Y1308100D02*
D03*
X4445000Y1981200D02*
D03*
X3492500Y3911600D02*
D03*
X3721100D02*
D03*
X368300Y3606800D02*
D03*
Y4064000D02*
D03*
X213360Y4610100D02*
D03*
X3746500Y3530600D02*
D03*
X2540000Y2921000D02*
D03*
X3390900Y2057400D02*
D03*
X2296160Y1899920D02*
D03*
Y1996440D02*
D03*
X2230120Y2052320D02*
D03*
Y2138680D02*
D03*
X2611520Y2603500D02*
D03*
X3746500Y2860040D02*
D03*
X3472180Y2618740D02*
D03*
X3401060D02*
D03*
X3329940D02*
D03*
X2200040Y254000D02*
D03*
X1282700Y127000D02*
D03*
X1320800Y254000D02*
D03*
X2171700Y127000D02*
D03*
X3492500Y508000D02*
D03*
X3365500Y571500D02*
D03*
X3048000D02*
D03*
X2921000Y508000D02*
D03*
X4178300Y127000D02*
D03*
X5067300D02*
D03*
X4991100Y254000D02*
D03*
X4102100D02*
D03*
X3352800Y774700D02*
D03*
X2794000Y1308100D02*
D03*
X3835400Y1003300D02*
D03*
X5334000Y1981200D02*
D03*
X1016000D02*
D03*
X1905000D02*
D03*
X5044440Y2951480D02*
D03*
X4521200Y2491740D02*
D03*
X2616200Y2755900D02*
D03*
X3931920Y4780280D02*
D03*
X4130040Y5196840D02*
D03*
X2029460Y2692400D02*
D03*
X2428240Y3134360D02*
D03*
X2294031Y3276600D02*
D03*
X2603500Y3482340D02*
D03*
X2331720Y5171440D02*
D03*
X2844800Y5803900D02*
D03*
X1699260Y5638800D02*
D03*
X2677160Y6057900D02*
D03*
X1160780Y5227320D02*
D03*
X1638300Y5842000D02*
D03*
X1808480Y5476240D02*
D03*
D72*
X5448300Y2743200D02*
D03*
X5948680Y3647440D02*
D03*
X2989580Y4719320D02*
D03*
X960120Y4998720D02*
D03*
X2992120Y4411980D02*
D03*
X2298700Y5925820D02*
D03*
X2171700Y5732780D02*
D03*
X2298700D02*
D03*
X2171700Y5829300D02*
D03*
X2298700D02*
D03*
X2171700Y5925820D02*
D03*
%TF.MD5,22b7b8806976395e1e82ec786c8c9465*%
M02*
