%TF.GenerationSoftware,Altium Limited,Altium Designer,24.5.2 (23)*%
G04 Layer_Color=255*
%FSLAX45Y45*%
%MOMM*%
%TF.SameCoordinates,627A3E5C-85DC-498E-B9C8-82595492641C*%
%TF.FilePolarity,Positive*%
%TF.FileFunction,Pads,Top*%
%TF.Part,Single*%
G01*
G75*
%TA.AperFunction,SMDPad,CuDef*%
%ADD10C,1.27000*%
%ADD11R,1.60000X1.00000*%
G04:AMPARAMS|DCode=12|XSize=2.15mm|YSize=2.45mm|CornerRadius=0.5375mm|HoleSize=0mm|Usage=FLASHONLY|Rotation=270.000|XOffset=0mm|YOffset=0mm|HoleType=Round|Shape=RoundedRectangle|*
%AMROUNDEDRECTD12*
21,1,2.15000,1.37500,0,0,270.0*
21,1,1.07500,2.45000,0,0,270.0*
1,1,1.07500,-0.68750,-0.53750*
1,1,1.07500,-0.68750,0.53750*
1,1,1.07500,0.68750,0.53750*
1,1,1.07500,0.68750,-0.53750*
%
%ADD12ROUNDEDRECTD12*%
%ADD13R,1.92006X0.58213*%
G04:AMPARAMS|DCode=14|XSize=1.92006mm|YSize=0.58213mm|CornerRadius=0.29107mm|HoleSize=0mm|Usage=FLASHONLY|Rotation=0.000|XOffset=0mm|YOffset=0mm|HoleType=Round|Shape=RoundedRectangle|*
%AMROUNDEDRECTD14*
21,1,1.92006,0.00000,0,0,0.0*
21,1,1.33793,0.58213,0,0,0.0*
1,1,0.58213,0.66896,0.00000*
1,1,0.58213,-0.66896,0.00000*
1,1,0.58213,-0.66896,0.00000*
1,1,0.58213,0.66896,0.00000*
%
%ADD14ROUNDEDRECTD14*%
%ADD15R,2.40000X3.10000*%
G04:AMPARAMS|DCode=16|XSize=0.7mm|YSize=1mm|CornerRadius=0.175mm|HoleSize=0mm|Usage=FLASHONLY|Rotation=0.000|XOffset=0mm|YOffset=0mm|HoleType=Round|Shape=RoundedRectangle|*
%AMROUNDEDRECTD16*
21,1,0.70000,0.65000,0,0,0.0*
21,1,0.35000,1.00000,0,0,0.0*
1,1,0.35000,0.17500,-0.32500*
1,1,0.35000,-0.17500,-0.32500*
1,1,0.35000,-0.17500,0.32500*
1,1,0.35000,0.17500,0.32500*
%
%ADD16ROUNDEDRECTD16*%
%ADD17R,0.70000X1.00000*%
G04:AMPARAMS|DCode=18|XSize=1.05mm|YSize=0.65mm|CornerRadius=0.1625mm|HoleSize=0mm|Usage=FLASHONLY|Rotation=0.000|XOffset=0mm|YOffset=0mm|HoleType=Round|Shape=RoundedRectangle|*
%AMROUNDEDRECTD18*
21,1,1.05000,0.32500,0,0,0.0*
21,1,0.72500,0.65000,0,0,0.0*
1,1,0.32500,0.36250,-0.16250*
1,1,0.32500,-0.36250,-0.16250*
1,1,0.32500,-0.36250,0.16250*
1,1,0.32500,0.36250,0.16250*
%
%ADD18ROUNDEDRECTD18*%
G04:AMPARAMS|DCode=19|XSize=1.05mm|YSize=0.65mm|CornerRadius=0.1625mm|HoleSize=0mm|Usage=FLASHONLY|Rotation=270.000|XOffset=0mm|YOffset=0mm|HoleType=Round|Shape=RoundedRectangle|*
%AMROUNDEDRECTD19*
21,1,1.05000,0.32500,0,0,270.0*
21,1,0.72500,0.65000,0,0,270.0*
1,1,0.32500,-0.16250,-0.36250*
1,1,0.32500,-0.16250,0.36250*
1,1,0.32500,0.16250,0.36250*
1,1,0.32500,0.16250,-0.36250*
%
%ADD19ROUNDEDRECTD19*%
%ADD20R,0.60000X0.70000*%
G04:AMPARAMS|DCode=21|XSize=0.508mm|YSize=0.635mm|CornerRadius=0.127mm|HoleSize=0mm|Usage=FLASHONLY|Rotation=270.000|XOffset=0mm|YOffset=0mm|HoleType=Round|Shape=RoundedRectangle|*
%AMROUNDEDRECTD21*
21,1,0.50800,0.38100,0,0,270.0*
21,1,0.25400,0.63500,0,0,270.0*
1,1,0.25400,-0.19050,-0.12700*
1,1,0.25400,-0.19050,0.12700*
1,1,0.25400,0.19050,0.12700*
1,1,0.25400,0.19050,-0.12700*
%
%ADD21ROUNDEDRECTD21*%
G04:AMPARAMS|DCode=22|XSize=1.27mm|YSize=1.778mm|CornerRadius=0.3175mm|HoleSize=0mm|Usage=FLASHONLY|Rotation=90.000|XOffset=0mm|YOffset=0mm|HoleType=Round|Shape=RoundedRectangle|*
%AMROUNDEDRECTD22*
21,1,1.27000,1.14300,0,0,90.0*
21,1,0.63500,1.77800,0,0,90.0*
1,1,0.63500,0.57150,0.31750*
1,1,0.63500,0.57150,-0.31750*
1,1,0.63500,-0.57150,-0.31750*
1,1,0.63500,-0.57150,0.31750*
%
%ADD22ROUNDEDRECTD22*%
G04:AMPARAMS|DCode=23|XSize=0.508mm|YSize=0.635mm|CornerRadius=0.127mm|HoleSize=0mm|Usage=FLASHONLY|Rotation=0.000|XOffset=0mm|YOffset=0mm|HoleType=Round|Shape=RoundedRectangle|*
%AMROUNDEDRECTD23*
21,1,0.50800,0.38100,0,0,0.0*
21,1,0.25400,0.63500,0,0,0.0*
1,1,0.25400,0.12700,-0.19050*
1,1,0.25400,-0.12700,-0.19050*
1,1,0.25400,-0.12700,0.19050*
1,1,0.25400,0.12700,0.19050*
%
%ADD23ROUNDEDRECTD23*%
G04:AMPARAMS|DCode=24|XSize=0.9mm|YSize=2.15mm|CornerRadius=0.225mm|HoleSize=0mm|Usage=FLASHONLY|Rotation=270.000|XOffset=0mm|YOffset=0mm|HoleType=Round|Shape=RoundedRectangle|*
%AMROUNDEDRECTD24*
21,1,0.90000,1.70000,0,0,270.0*
21,1,0.45000,2.15000,0,0,270.0*
1,1,0.45000,-0.85000,-0.22500*
1,1,0.45000,-0.85000,0.22500*
1,1,0.45000,0.85000,0.22500*
1,1,0.45000,0.85000,-0.22500*
%
%ADD24ROUNDEDRECTD24*%
G04:AMPARAMS|DCode=25|XSize=3.2mm|YSize=2.15mm|CornerRadius=0.5375mm|HoleSize=0mm|Usage=FLASHONLY|Rotation=270.000|XOffset=0mm|YOffset=0mm|HoleType=Round|Shape=RoundedRectangle|*
%AMROUNDEDRECTD25*
21,1,3.20000,1.07500,0,0,270.0*
21,1,2.12500,2.15000,0,0,270.0*
1,1,1.07500,-0.53750,-1.06250*
1,1,1.07500,-0.53750,1.06250*
1,1,1.07500,0.53750,1.06250*
1,1,1.07500,0.53750,-1.06250*
%
%ADD25ROUNDEDRECTD25*%
G04:AMPARAMS|DCode=26|XSize=0.7mm|YSize=1mm|CornerRadius=0.175mm|HoleSize=0mm|Usage=FLASHONLY|Rotation=270.000|XOffset=0mm|YOffset=0mm|HoleType=Round|Shape=RoundedRectangle|*
%AMROUNDEDRECTD26*
21,1,0.70000,0.65000,0,0,270.0*
21,1,0.35000,1.00000,0,0,270.0*
1,1,0.35000,-0.32500,-0.17500*
1,1,0.35000,-0.32500,0.17500*
1,1,0.35000,0.32500,0.17500*
1,1,0.35000,0.32500,-0.17500*
%
%ADD26ROUNDEDRECTD26*%
G04:AMPARAMS|DCode=27|XSize=0.8mm|YSize=0.8mm|CornerRadius=0.2mm|HoleSize=0mm|Usage=FLASHONLY|Rotation=270.000|XOffset=0mm|YOffset=0mm|HoleType=Round|Shape=RoundedRectangle|*
%AMROUNDEDRECTD27*
21,1,0.80000,0.40000,0,0,270.0*
21,1,0.40000,0.80000,0,0,270.0*
1,1,0.40000,-0.20000,-0.20000*
1,1,0.40000,-0.20000,0.20000*
1,1,0.40000,0.20000,0.20000*
1,1,0.40000,0.20000,-0.20000*
%
%ADD27ROUNDEDRECTD27*%
%ADD28R,2.17406X0.55213*%
G04:AMPARAMS|DCode=29|XSize=2.17406mm|YSize=0.55213mm|CornerRadius=0.27606mm|HoleSize=0mm|Usage=FLASHONLY|Rotation=180.000|XOffset=0mm|YOffset=0mm|HoleType=Round|Shape=RoundedRectangle|*
%AMROUNDEDRECTD29*
21,1,2.17406,0.00000,0,0,180.0*
21,1,1.62193,0.55213,0,0,180.0*
1,1,0.55213,-0.81097,0.00000*
1,1,0.55213,0.81097,0.00000*
1,1,0.55213,0.81097,0.00000*
1,1,0.55213,-0.81097,0.00000*
%
%ADD29ROUNDEDRECTD29*%
%ADD30O,0.30000X1.45000*%
%ADD31O,1.45000X0.30000*%
G04:AMPARAMS|DCode=32|XSize=1.3mm|YSize=1.1mm|CornerRadius=0.275mm|HoleSize=0mm|Usage=FLASHONLY|Rotation=270.000|XOffset=0mm|YOffset=0mm|HoleType=Round|Shape=RoundedRectangle|*
%AMROUNDEDRECTD32*
21,1,1.30000,0.55000,0,0,270.0*
21,1,0.75000,1.10000,0,0,270.0*
1,1,0.55000,-0.27500,-0.37500*
1,1,0.55000,-0.27500,0.37500*
1,1,0.55000,0.27500,0.37500*
1,1,0.55000,0.27500,-0.37500*
%
%ADD32ROUNDEDRECTD32*%
G04:AMPARAMS|DCode=33|XSize=1.778mm|YSize=2.794mm|CornerRadius=0.4445mm|HoleSize=0mm|Usage=FLASHONLY|Rotation=0.000|XOffset=0mm|YOffset=0mm|HoleType=Round|Shape=RoundedRectangle|*
%AMROUNDEDRECTD33*
21,1,1.77800,1.90500,0,0,0.0*
21,1,0.88900,2.79400,0,0,0.0*
1,1,0.88900,0.44450,-0.95250*
1,1,0.88900,-0.44450,-0.95250*
1,1,0.88900,-0.44450,0.95250*
1,1,0.88900,0.44450,0.95250*
%
%ADD33ROUNDEDRECTD33*%
%ADD34R,1.00000X0.70000*%
%ADD35O,0.60000X1.45000*%
%ADD36R,1.50000X0.44800*%
G04:AMPARAMS|DCode=37|XSize=0.986mm|YSize=0.59mm|CornerRadius=0.1475mm|HoleSize=0mm|Usage=FLASHONLY|Rotation=270.000|XOffset=0mm|YOffset=0mm|HoleType=Round|Shape=RoundedRectangle|*
%AMROUNDEDRECTD37*
21,1,0.98600,0.29500,0,0,270.0*
21,1,0.69101,0.59000,0,0,270.0*
1,1,0.29500,-0.14750,-0.34550*
1,1,0.29500,-0.14750,0.34550*
1,1,0.29500,0.14750,0.34550*
1,1,0.29500,0.14750,-0.34550*
%
%ADD37ROUNDEDRECTD37*%
%ADD38R,1.00000X0.70000*%
G04:AMPARAMS|DCode=39|XSize=0.8mm|YSize=0.8mm|CornerRadius=0.2mm|HoleSize=0mm|Usage=FLASHONLY|Rotation=180.000|XOffset=0mm|YOffset=0mm|HoleType=Round|Shape=RoundedRectangle|*
%AMROUNDEDRECTD39*
21,1,0.80000,0.40000,0,0,180.0*
21,1,0.40000,0.80000,0,0,180.0*
1,1,0.40000,-0.20000,0.20000*
1,1,0.40000,0.20000,0.20000*
1,1,0.40000,0.20000,-0.20000*
1,1,0.40000,-0.20000,-0.20000*
%
%ADD39ROUNDEDRECTD39*%
G04:AMPARAMS|DCode=40|XSize=1.016mm|YSize=1.397mm|CornerRadius=0.254mm|HoleSize=0mm|Usage=FLASHONLY|Rotation=270.000|XOffset=0mm|YOffset=0mm|HoleType=Round|Shape=RoundedRectangle|*
%AMROUNDEDRECTD40*
21,1,1.01600,0.88900,0,0,270.0*
21,1,0.50800,1.39700,0,0,270.0*
1,1,0.50800,-0.44450,-0.25400*
1,1,0.50800,-0.44450,0.25400*
1,1,0.50800,0.44450,0.25400*
1,1,0.50800,0.44450,-0.25400*
%
%ADD40ROUNDEDRECTD40*%
%TA.AperFunction,ViaPad*%
%ADD53C,5.08000*%
%TA.AperFunction,ComponentPad*%
%ADD54C,1.52000*%
%ADD55C,1.27000*%
%ADD56R,1.52000X1.52000*%
%ADD57R,1.15800X1.15800*%
%ADD58C,1.15800*%
%ADD59R,1.52000X1.52000*%
%ADD60O,1.10000X2.20000*%
%ADD61O,1.10000X1.80000*%
D10*
X3810000Y523240D02*
D03*
X2537460Y543560D02*
D03*
X5676900Y2425700D02*
D03*
X750570Y4687570D02*
D03*
X1694180Y4302760D02*
D03*
X2865120Y5275580D02*
D03*
X365760Y4610100D02*
D03*
X1587500Y5334000D02*
D03*
X967740Y5212080D02*
D03*
D11*
X4165600Y4800600D02*
D03*
Y4550600D02*
D03*
Y4300600D02*
D03*
X4405600Y4800600D02*
D03*
X4405600Y4550600D02*
D03*
X4405600Y4300600D02*
D03*
D12*
X6057900Y2743200D02*
D03*
X5676900D02*
D03*
D13*
X1981200Y6019800D02*
D03*
D14*
X1981200Y5892800D02*
D03*
Y5765800D02*
D03*
X2489200D02*
D03*
Y5892800D02*
D03*
X2489200Y6019800D02*
D03*
Y5638800D02*
D03*
X1981200Y5638800D02*
D03*
D15*
X2235200Y5829300D02*
D03*
D16*
X2794000Y1090200D02*
D03*
X2699000D02*
D03*
Y840200D02*
D03*
X2889000Y840200D02*
D03*
X3689100Y840200D02*
D03*
X3499100Y840200D02*
D03*
Y1090200D02*
D03*
X3594100Y1090200D02*
D03*
D17*
X2889000Y1090200D02*
D03*
X3689100Y1090200D02*
D03*
D18*
X2739880Y3819340D02*
D03*
X2324880D02*
D03*
X2739880Y4034340D02*
D03*
X2324880D02*
D03*
D19*
X5861500Y5063000D02*
D03*
Y5478000D02*
D03*
X6076500Y5063000D02*
D03*
Y5478000D02*
D03*
D20*
X5284720Y3495980D02*
D03*
X5284720Y3295980D02*
D03*
X5474720D02*
D03*
D21*
X2603500Y3416300D02*
D03*
Y3314700D02*
D03*
X2677160Y5892800D02*
D03*
X2677160Y5994400D02*
D03*
X1803400Y6032500D02*
D03*
Y5930901D02*
D03*
X2844800Y5638800D02*
D03*
Y5740400D02*
D03*
X3111500Y2501900D02*
D03*
Y2603500D02*
D03*
X1808480Y5537200D02*
D03*
Y5638800D02*
D03*
X5334000Y2146300D02*
D03*
Y2044700D02*
D03*
X3931920Y3060700D02*
D03*
Y3162299D02*
D03*
X4069080Y2999740D02*
D03*
Y2898141D02*
D03*
X2540000Y939800D02*
D03*
Y838200D02*
D03*
X3352800Y939800D02*
D03*
Y838200D02*
D03*
X2372360Y2933700D02*
D03*
Y2832100D02*
D03*
X495300Y4292600D02*
D03*
Y4191000D02*
D03*
Y3835400D02*
D03*
Y3733800D02*
D03*
X2921000Y330200D02*
D03*
Y431800D02*
D03*
X3492500Y330200D02*
D03*
Y431800D02*
D03*
X1143000Y2146300D02*
D03*
Y2044700D02*
D03*
X1016000Y2146300D02*
D03*
Y2044700D02*
D03*
X2032000Y2146300D02*
D03*
Y2044700D02*
D03*
X1905000Y2146300D02*
D03*
Y2044700D02*
D03*
X4318000Y2146300D02*
D03*
Y2044700D02*
D03*
X4445000Y2146300D02*
D03*
Y2044700D02*
D03*
X5207000Y2146300D02*
D03*
Y2044700D02*
D03*
X2501900Y3124200D02*
D03*
Y3225800D02*
D03*
X2603500Y3124200D02*
D03*
Y3225800D02*
D03*
X2400300Y3314700D02*
D03*
Y3416300D02*
D03*
X3931920Y4714240D02*
D03*
Y4612640D02*
D03*
X2616200Y2819400D02*
D03*
Y2921000D02*
D03*
X2898140Y3860800D02*
D03*
Y3759200D02*
D03*
X2882900Y2501900D02*
D03*
Y2603500D02*
D03*
X3835400Y939800D02*
D03*
Y838200D02*
D03*
X2997200Y2501900D02*
D03*
Y2603500D02*
D03*
X2501900Y3416300D02*
D03*
Y3314700D02*
D03*
X1549400Y4800600D02*
D03*
Y4699000D02*
D03*
D22*
X2849880Y4721860D02*
D03*
Y4417060D02*
D03*
D23*
X2435860Y5133340D02*
D03*
X2537460D02*
D03*
X1328420Y5227320D02*
D03*
X1226820D02*
D03*
X1701800Y5740400D02*
D03*
X1803400D02*
D03*
X1803400Y5842000D02*
D03*
X1701801Y5842000D02*
D03*
X2197693Y3233239D02*
D03*
X2096093D02*
D03*
X2197693Y2694424D02*
D03*
X2096093D02*
D03*
X2895600Y1701800D02*
D03*
X2997200D02*
D03*
X3695700Y1460500D02*
D03*
X3594101D02*
D03*
X3695699Y1701800D02*
D03*
X3594100D02*
D03*
X4348481Y5080000D02*
D03*
X4450080D02*
D03*
X4236720Y5082540D02*
D03*
X4135120D02*
D03*
X1092200Y127000D02*
D03*
X1193800D02*
D03*
X1981200D02*
D03*
X2082800D02*
D03*
X4368800D02*
D03*
X4267200D02*
D03*
X5257800D02*
D03*
X5156200D02*
D03*
X2895600Y1460500D02*
D03*
X2997199D02*
D03*
X3553460Y3911600D02*
D03*
X3655059D02*
D03*
X4193540Y5196840D02*
D03*
X4295140Y5196840D02*
D03*
X2794000Y1231900D02*
D03*
X2895600D02*
D03*
X2781300Y698500D02*
D03*
X2882900D02*
D03*
X2679700Y2603500D02*
D03*
X2781300D02*
D03*
X3594101Y1231900D02*
D03*
X3695700D02*
D03*
X4455160Y2494280D02*
D03*
X4353560D02*
D03*
D24*
X2568340Y4458840D02*
D03*
X2568340Y4688840D02*
D03*
X2568340Y4918840D02*
D03*
D25*
X1983340Y4688840D02*
D03*
D26*
X1326500Y5366000D02*
D03*
X1326500Y5556000D02*
D03*
X1086500Y5461000D02*
D03*
X1146999Y4699000D02*
D03*
X1147000Y4889000D02*
D03*
X1397000D02*
D03*
Y4794000D02*
D03*
D27*
X2717800Y5609600D02*
D03*
Y5769600D02*
D03*
X368300Y4321800D02*
D03*
Y4161800D02*
D03*
Y3864601D02*
D03*
Y3704600D02*
D03*
X3048000Y301000D02*
D03*
Y461000D02*
D03*
X3365500Y301000D02*
D03*
Y461000D02*
D03*
D28*
X4839087Y2639060D02*
D03*
D29*
Y2766060D02*
D03*
Y2893060D02*
D03*
Y3020060D02*
D03*
X4365873D02*
D03*
Y2893060D02*
D03*
Y2766060D02*
D03*
Y2639060D02*
D03*
D30*
X2900000Y3597500D02*
D03*
X2950000D02*
D03*
X3000000D02*
D03*
X3050000D02*
D03*
X3100000D02*
D03*
X3150000Y3597500D02*
D03*
X3200000D02*
D03*
X3250000Y3597500D02*
D03*
X3300000D02*
D03*
X3350000D02*
D03*
X3400000D02*
D03*
X3450000D02*
D03*
Y2752500D02*
D03*
X3400000D02*
D03*
X3350000D02*
D03*
X3300000D02*
D03*
X3250000D02*
D03*
X3200000D02*
D03*
X3150000D02*
D03*
X3100000D02*
D03*
X3050000D02*
D03*
X3000000D02*
D03*
X2950000D02*
D03*
X2900000D02*
D03*
D31*
X3597500Y3450000D02*
D03*
Y3400000D02*
D03*
Y3350000D02*
D03*
Y3300000D02*
D03*
Y3250000D02*
D03*
X3597500Y3200000D02*
D03*
Y3150000D02*
D03*
X3597500Y3100000D02*
D03*
Y3050000D02*
D03*
Y3000000D02*
D03*
Y2950000D02*
D03*
Y2900000D02*
D03*
X2752500D02*
D03*
Y2950000D02*
D03*
Y3000000D02*
D03*
Y3050000D02*
D03*
Y3100000D02*
D03*
X2752500Y3150000D02*
D03*
Y3200000D02*
D03*
X2752500Y3250000D02*
D03*
Y3300000D02*
D03*
Y3350000D02*
D03*
Y3400000D02*
D03*
Y3450000D02*
D03*
D32*
X2240485Y3078832D02*
D03*
Y2848832D02*
D03*
X2060485D02*
D03*
Y3078832D02*
D03*
D33*
X2208530Y5367020D02*
D03*
X2526030D02*
D03*
D34*
X1397000Y4699000D02*
D03*
D35*
X3416300Y4070900D02*
D03*
X3543300D02*
D03*
X3670300D02*
D03*
X3797300D02*
D03*
X3416300Y4615900D02*
D03*
X3543300D02*
D03*
X3670300D02*
D03*
X3797300D02*
D03*
D36*
X5816600Y3559000D02*
D03*
Y3299000D02*
D03*
Y3494000D02*
D03*
Y3364000D02*
D03*
Y3429000D02*
D03*
D37*
X3737360Y5289640D02*
D03*
X3547360D02*
D03*
X3642360Y5078640D02*
D03*
D38*
X5454720Y3495980D02*
D03*
D39*
X1223000Y254000D02*
D03*
X1063000D02*
D03*
X2112000D02*
D03*
X1952000D02*
D03*
X4238000D02*
D03*
X4398000D02*
D03*
X5127000D02*
D03*
X5287000D02*
D03*
D40*
X1701800Y4902200D02*
D03*
X1701800Y4699000D02*
D03*
X960120Y4892040D02*
D03*
Y4688840D02*
D03*
D53*
X1206500Y5969000D02*
D03*
X5969000D02*
D03*
Y381000D02*
D03*
X381000D02*
D03*
D54*
X2032000Y1443000D02*
D03*
Y1143000D02*
D03*
X444500Y5778500D02*
D03*
X5189500Y5842000D02*
D03*
X3792500D02*
D03*
X1143000Y1143000D02*
D03*
Y843000D02*
D03*
X4318000Y1143000D02*
D03*
Y843000D02*
D03*
X5207000Y1143000D02*
D03*
Y1443000D02*
D03*
D55*
X1836000Y1743000D02*
D03*
Y543000D02*
D03*
X248500Y5178500D02*
D03*
Y6078500D02*
D03*
X4589500Y6038000D02*
D03*
X5489500Y6038000D02*
D03*
X3192500Y6038000D02*
D03*
X4092500D02*
D03*
X1339000Y1743000D02*
D03*
Y543000D02*
D03*
X4514000Y1743000D02*
D03*
Y543000D02*
D03*
X5011000Y543000D02*
D03*
Y1743000D02*
D03*
D56*
X2032000Y843000D02*
D03*
X444500Y5478500D02*
D03*
X1143000Y1443000D02*
D03*
X4318000D02*
D03*
X5207000Y843000D02*
D03*
D57*
X6032500Y4191000D02*
D03*
D58*
Y4318000D02*
D03*
Y4572000D02*
D03*
X6032500Y4699000D02*
D03*
X5905501Y4191000D02*
D03*
X5905500Y4318001D02*
D03*
X5905500Y4445000D02*
D03*
X5905500Y4572000D02*
D03*
Y4699000D02*
D03*
X6032500Y4445000D02*
D03*
D59*
X4889500Y5842000D02*
D03*
X3492500D02*
D03*
D60*
X6006600Y3429000D02*
D03*
D61*
X5791600Y3709000D02*
D03*
Y3149000D02*
D03*
%TF.MD5,346d103ef61c6f404d806521d9c68446*%
M02*
