%TF.GenerationSoftware,Altium Limited,Altium Designer,24.5.2 (23)*%
G04 Layer_Color=65535*
%FSLAX45Y45*%
%MOMM*%
%TF.SameCoordinates,627A3E5C-85DC-498E-B9C8-82595492641C*%
%TF.FilePolarity,Positive*%
%TF.FileFunction,Legend,Top*%
%TF.Part,Single*%
G01*
G75*
%TA.AperFunction,NonConductor*%
%ADD73C,0.20000*%
%ADD74C,0.25400*%
%ADD75C,0.25000*%
%ADD76C,0.30000*%
%ADD77C,0.12700*%
%ADD78C,0.20320*%
%ADD79C,0.00000*%
%ADD80C,0.15000*%
%ADD81C,0.30480*%
D73*
X4431300Y4137100D02*
G03*
X4431300Y4137100I-10000J0D01*
G01*
X2232380Y4036840D02*
G03*
X2232380Y4036840I-10000J0D01*
G01*
X6089000Y5580500D02*
G03*
X6089000Y5580500I-10000J0D01*
G01*
X1977288Y3089555D02*
G03*
X1977288Y3089555I-10000J0D01*
G01*
D74*
X1986896Y6144260D02*
G03*
X1986896Y6144260I-10776J0D01*
G01*
X1407776Y4544060D02*
G03*
X1407776Y4544060I-10776J0D01*
G01*
X6159500Y4373879D02*
X6159500Y4526280D01*
X6159500Y4373879D02*
X6159500Y4526280D01*
D75*
X3301800Y4069080D02*
G03*
X3301800Y4069080I-12500J0D01*
G01*
X3021500Y1095200D02*
G03*
X3021500Y1095200I-12500J0D01*
G01*
X4856280Y2512060D02*
G03*
X4856280Y2512060I-12500J0D01*
G01*
X2765000Y3520000D02*
G03*
X2765000Y3520000I-12500J0D01*
G01*
X3821600Y1095200D02*
G03*
X3821600Y1095200I-12500J0D01*
G01*
D76*
X2918300Y3441700D02*
G03*
X2918300Y3441700I-10000J0D01*
G01*
D77*
X5217160Y3553460D02*
X5542280D01*
X5217160Y3235960D02*
Y3553460D01*
Y3235960D02*
X5542280D01*
Y3553460D01*
X1358900Y3314700D02*
Y3644900D01*
X1524000D01*
X1689100D01*
X1524000Y3314700D02*
Y3644900D01*
X1689100Y3314700D02*
Y3644900D01*
X1854200D01*
Y3314700D02*
Y3644900D01*
X1689100Y2997200D02*
Y3314700D01*
X1524000Y2997200D02*
Y3314700D01*
Y2997200D02*
X1854200D01*
Y3314700D01*
X1358900D02*
X1854200D01*
X4105600Y4632601D02*
Y4718600D01*
X4465600Y4632601D02*
Y4718600D01*
X4105600Y4382600D02*
Y4468600D01*
X4465600Y4382600D02*
Y4468600D01*
X4105600Y4100600D02*
X4465600D01*
Y4218600D01*
Y4882600D02*
Y5000600D01*
X4105600Y5000601D02*
X4465600Y5000600D01*
X4105600Y4882600D02*
X4105600Y5000601D01*
X4105600Y4218600D02*
X4105600Y4100600D01*
X5637400Y2543200D02*
X6097400Y2543200D01*
X5637400Y2943200D02*
X6097400D01*
Y2543200D02*
Y2599350D01*
X5637400Y2543200D02*
Y2599350D01*
X6097400Y2887050D02*
Y2943200D01*
X5637400Y2887050D02*
Y2943200D01*
X5511800Y2641600D02*
X5511800Y2844800D01*
X4231640Y3098800D02*
X4973320D01*
X4231640Y2560320D02*
Y3098800D01*
X4973320Y2560320D02*
Y3098800D01*
X4231640Y2560320D02*
X4973320D01*
X3472180Y4993640D02*
Y5374640D01*
Y4993640D02*
X3812540D01*
Y5374640D01*
X3472180D02*
X3812540D01*
X3332480Y3975100D02*
Y4711700D01*
Y3975100D02*
X3881120D01*
Y4711700D01*
X3332480D02*
X3881120D01*
X1016000Y5288280D02*
Y5633720D01*
Y5288280D02*
X1397000D01*
Y5633720D01*
X1016000D02*
X1397000D01*
X1866900Y5565140D02*
Y6098540D01*
Y5565140D02*
X2603500D01*
Y6098540D01*
X1866900D02*
X2603500D01*
X1851660Y4330700D02*
Y5046980D01*
Y4330700D02*
X2700020D01*
Y5046980D01*
X1851660D02*
X2700020D01*
X1061720Y4610100D02*
Y4978400D01*
Y4610100D02*
X1480820D01*
Y4978400D01*
X1061720D02*
X1480820D01*
X1942000Y510500D02*
X2342000D01*
X1942000Y1775500D02*
X2342000D01*
Y510500D02*
Y1775500D01*
X1785000Y643000D02*
Y1643000D01*
X2971800Y762000D02*
Y1168400D01*
X2616200Y762000D02*
Y1168400D01*
X2971800Y1168400D01*
X2616200Y762000D02*
X2971800Y762000D01*
X2742380Y3876840D02*
Y3976840D01*
X2322380Y3876840D02*
Y3976840D01*
Y3764840D02*
X2742380D01*
X2322380Y4088840D02*
X2742380D01*
X5919000Y5060500D02*
X6019000D01*
X5919000Y5480500D02*
X6019000D01*
X5807000Y5060500D02*
Y5480500D01*
X6131000Y5060500D02*
Y5480500D01*
X197500Y5278500D02*
Y5978500D01*
X754500Y5146000D02*
Y6111000D01*
X354500D02*
X754500D01*
X354500Y5146000D02*
X754500D01*
X2677800Y5681600D02*
Y5697600D01*
X2757800Y5697600D02*
X2757800Y5681600D01*
X2679700Y5831840D02*
X2755900D01*
X2865000Y2865000D02*
X3485000D01*
X2865000Y3485000D02*
X3485000Y3485000D01*
Y2865000D02*
Y3485000D01*
X2865000Y2865000D02*
Y3485000D01*
X2025485Y2936832D02*
X2025485Y2990832D01*
X2275485Y2936832D02*
Y2990832D01*
X3416300Y762000D02*
X3771900Y762000D01*
X3416300Y1168400D02*
X3771900Y1168400D01*
X3416300Y762000D02*
X3416300Y1168400D01*
X3771900Y762000D02*
Y1168400D01*
X4689500Y6089000D02*
X5389500D01*
X4557000Y5532000D02*
X5522000D01*
Y5932000D01*
X4557000D02*
X4557000Y5532000D01*
X3292500Y6089000D02*
X3992500D01*
X3160000Y5532000D02*
X4125000D01*
Y5932000D01*
X3160000Y5532000D02*
Y5932000D01*
X1390000Y643000D02*
Y1643000D01*
X833000Y510500D02*
Y1775500D01*
Y510500D02*
X1233000D01*
X833000Y1775500D02*
X1233000D01*
X4565000Y643000D02*
Y1643000D01*
X4008000Y510500D02*
Y1775500D01*
Y510500D02*
X4408000D01*
X4008000Y1775500D02*
X4408000D01*
X4960000Y643000D02*
Y1643000D01*
X5517000Y510500D02*
Y1775500D01*
X5117000D02*
X5517000D01*
X5117000Y510500D02*
X5517000D01*
X408300Y4249800D02*
X408300Y4233800D01*
X328300Y4233800D02*
Y4249800D01*
X330200Y4099560D02*
X406400D01*
X408300Y3776600D02*
Y3792600D01*
X328300Y3776600D02*
Y3792600D01*
X330200Y3642360D02*
X406400D01*
X3008000Y373000D02*
Y389000D01*
X3088000Y373000D02*
Y389000D01*
X3009900Y523240D02*
X3086100D01*
X3325500Y373000D02*
Y389000D01*
X3405500Y373000D02*
Y389000D01*
X3327400Y523240D02*
X3403600D01*
X1285240Y215900D02*
Y292100D01*
X1135000Y214000D02*
X1151000D01*
X1135000Y294000D02*
X1151000D01*
X2174240Y215900D02*
Y292100D01*
X2024000Y214000D02*
X2040000D01*
X2024000Y294000D02*
X2040000D01*
X4175760Y215900D02*
Y292100D01*
X4310000Y294000D02*
X4326000D01*
X4310000Y214000D02*
X4326000D01*
X5064760Y215900D02*
Y292100D01*
X5199000Y294000D02*
X5215000D01*
X5199000Y214000D02*
X5215000D01*
D78*
X3403600Y1460500D02*
X3530600D01*
X3048000D02*
X3162300D01*
X3467100Y1701800D02*
X3543300D01*
X3048000D02*
X3124200D01*
X3263031Y1518887D02*
X3195320D01*
Y1468103D01*
X3229176Y1485031D01*
X3246103D01*
X3263031Y1468103D01*
Y1434248D01*
X3246103Y1417320D01*
X3212248D01*
X3195320Y1434248D01*
X3296887Y1518887D02*
Y1451176D01*
X3330743Y1417320D01*
X3364599Y1451176D01*
Y1518887D01*
X3157220Y1743259D02*
X3174148Y1760187D01*
X3208003D01*
X3224931Y1743259D01*
Y1726331D01*
X3208003Y1709403D01*
X3191076D01*
X3208003D01*
X3224931Y1692476D01*
Y1675548D01*
X3208003Y1658620D01*
X3174148D01*
X3157220Y1675548D01*
X3258787Y1760187D02*
Y1692476D01*
X3292643Y1658620D01*
X3326499Y1692476D01*
Y1760187D01*
X3360354Y1743259D02*
X3377282Y1760187D01*
X3411138D01*
X3428066Y1743259D01*
Y1726331D01*
X3411138Y1709403D01*
X3394210D01*
X3411138D01*
X3428066Y1692476D01*
Y1675548D01*
X3411138Y1658620D01*
X3377282D01*
X3360354Y1675548D01*
X6202713Y3309620D02*
X6287352D01*
X6304280Y3326548D01*
Y3360403D01*
X6287352Y3377331D01*
X6202713D01*
X6219641Y3478899D02*
X6202713Y3461971D01*
Y3428115D01*
X6219641Y3411187D01*
X6236569D01*
X6253497Y3428115D01*
Y3461971D01*
X6270424Y3478899D01*
X6287352D01*
X6304280Y3461971D01*
Y3428115D01*
X6287352Y3411187D01*
X6202713Y3512754D02*
X6304280D01*
Y3563538D01*
X6287352Y3580466D01*
X6270424D01*
X6253497Y3563538D01*
Y3512754D01*
Y3563538D01*
X6236569Y3580466D01*
X6219641D01*
X6202713Y3563538D01*
Y3512754D01*
X6219641Y4380631D02*
X6202713Y4363703D01*
Y4329848D01*
X6219641Y4312920D01*
X6236569D01*
X6253497Y4329848D01*
Y4363703D01*
X6270424Y4380631D01*
X6287352D01*
X6304280Y4363703D01*
Y4329848D01*
X6287352Y4312920D01*
X6202713Y4414487D02*
X6304280D01*
X6270424Y4448343D01*
X6304280Y4482199D01*
X6202713D01*
Y4516054D02*
X6304280D01*
Y4566838D01*
X6287352Y4583766D01*
X6219641D01*
X6202713Y4566838D01*
Y4516054D01*
X6304280Y5138420D02*
X6202713D01*
Y5189203D01*
X6219641Y5206131D01*
X6253497D01*
X6270424Y5189203D01*
Y5138420D01*
Y5172276D02*
X6304280Y5206131D01*
X6219641Y5307699D02*
X6202713Y5290771D01*
Y5256915D01*
X6219641Y5239987D01*
X6236569D01*
X6253497Y5256915D01*
Y5290771D01*
X6270424Y5307699D01*
X6287352D01*
X6304280Y5290771D01*
Y5256915D01*
X6287352Y5239987D01*
X6202713Y5341554D02*
Y5409266D01*
Y5375410D01*
X6304280D01*
X1455420Y782320D02*
Y883887D01*
X1506203D01*
X1523131Y866959D01*
Y833103D01*
X1506203Y816176D01*
X1455420D01*
X1556987Y883887D02*
Y782320D01*
X1590843Y816176D01*
X1624699Y782320D01*
Y883887D01*
X1658554Y782320D02*
Y883887D01*
X1709338D01*
X1726266Y866959D01*
Y833103D01*
X1709338Y816176D01*
X1658554D01*
X1692410D02*
X1726266Y782320D01*
X1523131Y1171759D02*
X1506203Y1188687D01*
X1472348D01*
X1455420Y1171759D01*
Y1104048D01*
X1472348Y1087120D01*
X1506203D01*
X1523131Y1104048D01*
Y1137903D01*
X1489276D01*
X1556987Y1087120D02*
Y1188687D01*
X1624699Y1087120D01*
Y1188687D01*
X1658554D02*
Y1087120D01*
X1709338D01*
X1726266Y1104048D01*
Y1171759D01*
X1709338Y1188687D01*
X1658554D01*
X4630420Y782320D02*
Y883887D01*
X4681203D01*
X4698131Y866959D01*
Y833103D01*
X4681203Y816176D01*
X4630420D01*
X4731987Y883887D02*
Y782320D01*
X4765843Y816176D01*
X4799699Y782320D01*
Y883887D01*
X4833554Y782320D02*
Y883887D01*
X4884338D01*
X4901266Y866959D01*
Y833103D01*
X4884338Y816176D01*
X4833554D01*
X4867410D02*
X4901266Y782320D01*
X4698131Y1171759D02*
X4681203Y1188687D01*
X4647348D01*
X4630420Y1171759D01*
Y1104048D01*
X4647348Y1087120D01*
X4681203D01*
X4698131Y1104048D01*
Y1137903D01*
X4664276D01*
X4731987Y1087120D02*
Y1188687D01*
X4799699Y1087120D01*
Y1188687D01*
X4833554D02*
Y1087120D01*
X4884338D01*
X4901266Y1104048D01*
Y1171759D01*
X4884338Y1188687D01*
X4833554D01*
X5398369Y6168841D02*
X5415297Y6151913D01*
X5449152D01*
X5466080Y6168841D01*
Y6236552D01*
X5449152Y6253480D01*
X5415297D01*
X5398369Y6236552D01*
X5364513Y6253480D02*
Y6185769D01*
X5330657Y6151913D01*
X5296801Y6185769D01*
Y6253480D01*
Y6202697D01*
X5364513D01*
X5262946Y6253480D02*
Y6151913D01*
X5195234Y6253480D01*
Y6151913D01*
X5161378D02*
Y6253480D01*
Y6202697D01*
X5093667D01*
Y6151913D01*
Y6253480D01*
X4890533Y6168841D02*
X4907460Y6151913D01*
X4941316D01*
X4958244Y6168841D01*
Y6236552D01*
X4941316Y6253480D01*
X4907460D01*
X4890533Y6236552D01*
X4856677Y6253480D02*
Y6185769D01*
X4822821Y6151913D01*
X4788965Y6185769D01*
Y6253480D01*
Y6202697D01*
X4856677D01*
X4755109Y6253480D02*
Y6151913D01*
X4687398Y6253480D01*
Y6151913D01*
X4653542D02*
Y6253480D01*
X4585831D01*
X4026769Y6168841D02*
X4043697Y6151913D01*
X4077552D01*
X4094480Y6168841D01*
Y6236552D01*
X4077552Y6253480D01*
X4043697D01*
X4026769Y6236552D01*
X3992913Y6253480D02*
Y6185769D01*
X3959057Y6151913D01*
X3925201Y6185769D01*
Y6253480D01*
Y6202697D01*
X3992913D01*
X3891346Y6253480D02*
Y6151913D01*
X3823634Y6253480D01*
Y6151913D01*
X3789778D02*
Y6253480D01*
X3722067D01*
X3518933Y6168841D02*
X3535860Y6151913D01*
X3569716D01*
X3586644Y6168841D01*
Y6236552D01*
X3569716Y6253480D01*
X3535860D01*
X3518933Y6236552D01*
X3485077Y6253480D02*
Y6185769D01*
X3451221Y6151913D01*
X3417365Y6185769D01*
Y6253480D01*
Y6202697D01*
X3485077D01*
X3383509Y6253480D02*
Y6151913D01*
X3315798Y6253480D01*
Y6151913D01*
X3281942D02*
Y6253480D01*
Y6202697D01*
X3214231D01*
Y6151913D01*
Y6253480D01*
X104123Y6024880D02*
Y5957169D01*
X137979Y5991024D02*
X70268D01*
X53340Y5923313D02*
Y5889457D01*
Y5906385D01*
X154907D01*
X137979Y5923313D01*
X53340Y5770962D02*
Y5838673D01*
X121051Y5770962D01*
X137979D01*
X154907Y5787890D01*
Y5821746D01*
X137979Y5838673D01*
X154907Y5737106D02*
X87196D01*
X53340Y5703250D01*
X87196Y5669395D01*
X154907D01*
X137979Y5466260D02*
X154907Y5483188D01*
Y5517044D01*
X137979Y5533972D01*
X70268D01*
X53340Y5517044D01*
Y5483188D01*
X70268Y5466260D01*
X104123D01*
Y5500116D01*
X53340Y5432404D02*
X154907D01*
X53340Y5364693D01*
X154907D01*
Y5330837D02*
X53340D01*
Y5280054D01*
X70268Y5263126D01*
X137979D01*
X154907Y5280054D01*
Y5330837D01*
X172703Y4399280D02*
Y4331569D01*
X206559Y4365424D02*
X138848D01*
X223487Y4230001D02*
Y4297713D01*
X172703D01*
X189631Y4263857D01*
Y4246929D01*
X172703Y4230001D01*
X138848D01*
X121920Y4246929D01*
Y4280785D01*
X138848Y4297713D01*
X223487Y4196146D02*
X155776D01*
X121920Y4162290D01*
X155776Y4128434D01*
X223487D01*
X172703Y3942080D02*
Y3874369D01*
X206559Y3908224D02*
X138848D01*
X206559Y3840513D02*
X223487Y3823585D01*
Y3789729D01*
X206559Y3772801D01*
X189631D01*
X172703Y3789729D01*
Y3806657D01*
Y3789729D01*
X155776Y3772801D01*
X138848D01*
X121920Y3789729D01*
Y3823585D01*
X138848Y3840513D01*
X223487Y3738946D02*
X155776D01*
X121920Y3705090D01*
X155776Y3671234D01*
X223487D01*
X206559Y3637378D02*
X223487Y3620450D01*
Y3586595D01*
X206559Y3569667D01*
X189631D01*
X172703Y3586595D01*
Y3603523D01*
Y3586595D01*
X155776Y3569667D01*
X138848D01*
X121920Y3586595D01*
Y3620450D01*
X138848Y3637378D01*
X496103Y3169920D02*
X394536D01*
Y3119137D01*
X411463Y3102209D01*
X479175D01*
X496103Y3119137D01*
Y3169920D01*
X394536Y3017569D02*
Y3051425D01*
X411463Y3068353D01*
X445319D01*
X462247Y3051425D01*
Y3017569D01*
X445319Y3000641D01*
X428391D01*
Y3068353D01*
X394536Y2966786D02*
Y2916002D01*
X411463Y2899074D01*
X428391Y2916002D01*
Y2949858D01*
X445319Y2966786D01*
X462247Y2949858D01*
Y2899074D01*
X394536Y2865218D02*
Y2831363D01*
Y2848290D01*
X462247D01*
Y2865218D01*
X360680Y2746723D02*
Y2729795D01*
X377608Y2712868D01*
X462247D01*
Y2763651D01*
X445319Y2780579D01*
X411463D01*
X394536Y2763651D01*
Y2712868D01*
Y2679012D02*
X462247D01*
Y2628228D01*
X445319Y2611300D01*
X394536D01*
Y2526661D02*
Y2560517D01*
X411463Y2577444D01*
X445319D01*
X462247Y2560517D01*
Y2526661D01*
X445319Y2509733D01*
X428391D01*
Y2577444D01*
X496103Y2408166D02*
X394536D01*
Y2458949D01*
X411463Y2475877D01*
X445319D01*
X462247Y2458949D01*
Y2408166D01*
X496103Y2272743D02*
X394536D01*
Y2221959D01*
X411463Y2205031D01*
X428391D01*
X445319D01*
X462247Y2221959D01*
Y2272743D01*
Y2171175D02*
X411463D01*
X394536Y2154248D01*
Y2103464D01*
X377608D01*
X360680Y2120392D01*
Y2137320D01*
X394536Y2103464D02*
X462247D01*
X333543Y3246989D02*
Y3314700D01*
X231976D01*
Y3246989D01*
X282759Y3314700D02*
Y3280844D01*
X198120Y3213133D02*
X299687D01*
Y3162349D01*
X282759Y3145421D01*
X248903D01*
X231976Y3162349D01*
Y3213133D01*
X333543Y3111566D02*
X231976D01*
X282759D01*
X299687Y3094638D01*
Y3060782D01*
X282759Y3043854D01*
X231976D01*
X299687Y3009998D02*
X231976D01*
X265831D01*
X282759Y2993070D01*
X299687Y2976143D01*
Y2959215D01*
X231976Y2857648D02*
Y2891503D01*
X248903Y2908431D01*
X282759D01*
X299687Y2891503D01*
Y2857648D01*
X282759Y2840720D01*
X265831D01*
Y2908431D01*
X231976Y2806864D02*
X299687D01*
Y2756080D01*
X282759Y2739153D01*
X231976D01*
Y2603729D02*
X333543D01*
X299687Y2569874D01*
X333543Y2536018D01*
X231976D01*
X299687Y2485234D02*
Y2451379D01*
X282759Y2434451D01*
X231976D01*
Y2485234D01*
X248903Y2502162D01*
X265831Y2485234D01*
Y2434451D01*
X231976Y2400595D02*
X299687D01*
Y2349811D01*
X282759Y2332884D01*
X231976D01*
Y2299028D02*
X299687D01*
Y2248244D01*
X282759Y2231316D01*
X231976D01*
Y2197460D02*
Y2163605D01*
Y2180533D01*
X299687D01*
Y2197460D01*
X231976Y2112821D02*
X299687D01*
Y2062038D01*
X282759Y2045110D01*
X231976D01*
X198120Y1977398D02*
Y1960470D01*
X215048Y1943542D01*
X299687D01*
Y1994326D01*
X282759Y2011254D01*
X248903D01*
X231976Y1994326D01*
Y1943542D01*
X5570220Y1480787D02*
Y1379220D01*
X5621003D01*
X5637931Y1396148D01*
Y1413076D01*
X5621003Y1430003D01*
X5570220D01*
X5621003D01*
X5637931Y1446931D01*
Y1463859D01*
X5621003Y1480787D01*
X5570220D01*
X5739499Y1379220D02*
X5671787D01*
X5739499Y1446931D01*
Y1463859D01*
X5722571Y1480787D01*
X5688715D01*
X5671787Y1463859D01*
X4605020Y1480787D02*
Y1379220D01*
X4655803D01*
X4672731Y1396148D01*
Y1413076D01*
X4655803Y1430003D01*
X4605020D01*
X4655803D01*
X4672731Y1446931D01*
Y1463859D01*
X4655803Y1480787D01*
X4605020D01*
X4706587Y1379220D02*
X4740443D01*
X4723515D01*
Y1480787D01*
X4706587Y1463859D01*
X1744980Y1366520D02*
X1677269D01*
X1643413Y1400376D01*
X1677269Y1434231D01*
X1744980D01*
X1694197D01*
Y1366520D01*
X1744980Y1535799D02*
Y1468087D01*
X1677269Y1535799D01*
X1660341D01*
X1643413Y1518871D01*
Y1485015D01*
X1660341Y1468087D01*
X792480Y1379220D02*
X724769D01*
X690913Y1413076D01*
X724769Y1446931D01*
X792480D01*
X741697D01*
Y1379220D01*
X792480Y1480787D02*
Y1514643D01*
Y1497715D01*
X690913D01*
X707841Y1480787D01*
X3103880Y198087D02*
Y96520D01*
X3154663D01*
X3171591Y113448D01*
Y130376D01*
X3154663Y147303D01*
X3103880D01*
X3154663D01*
X3171591Y164231D01*
Y181159D01*
X3154663Y198087D01*
X3103880D01*
X3263900Y93980D02*
Y195547D01*
X3314683D01*
X3331611Y178619D01*
Y144763D01*
X3314683Y127836D01*
X3263900D01*
X1561297Y4201144D02*
X1629008D01*
X1595153D01*
Y4099577D01*
X1662864D02*
Y4201144D01*
X1713648D01*
X1730576Y4184216D01*
Y4150360D01*
X1713648Y4133432D01*
X1662864D01*
X1764432Y4201144D02*
X1832143D01*
Y4184216D01*
X1764432Y4116504D01*
Y4099577D01*
X3012423Y5607501D02*
X2910856D01*
Y5658284D01*
X2927784Y5675212D01*
X2961640D01*
X2978568Y5658284D01*
Y5607501D01*
Y5641357D02*
X3012423Y5675212D01*
Y5759852D02*
X2910856D01*
X2961640Y5709068D01*
Y5776779D01*
X3764296Y83877D02*
Y151589D01*
Y117733D01*
X3865863D01*
Y185445D02*
X3764296D01*
Y236228D01*
X3781224Y253156D01*
X3815080D01*
X3832008Y236228D01*
Y185445D01*
X3865863Y287012D02*
Y320868D01*
Y303940D01*
X3764296D01*
X3781224Y287012D01*
X3764296Y439363D02*
Y371651D01*
X3815080D01*
X3798152Y405507D01*
Y422435D01*
X3815080Y439363D01*
X3848936D01*
X3865863Y422435D01*
Y388579D01*
X3848936Y371651D01*
X2481596Y86418D02*
Y154129D01*
Y120273D01*
X2583163D01*
Y187985D02*
X2481596D01*
Y238768D01*
X2498524Y255696D01*
X2532380D01*
X2549308Y238768D01*
Y187985D01*
X2583163Y289552D02*
Y323408D01*
Y306480D01*
X2481596D01*
X2498524Y289552D01*
Y374192D02*
X2481596Y391119D01*
Y424975D01*
X2498524Y441903D01*
X2515452D01*
X2532380Y424975D01*
Y408047D01*
Y424975D01*
X2549308Y441903D01*
X2566235D01*
X2583163Y424975D01*
Y391119D01*
X2566235Y374192D01*
X5631196Y1966017D02*
Y2033729D01*
Y1999873D01*
X5732763D01*
Y2067585D02*
X5631196D01*
Y2118368D01*
X5648124Y2135296D01*
X5681980D01*
X5698908Y2118368D01*
Y2067585D01*
X5732763Y2169152D02*
Y2203008D01*
Y2186080D01*
X5631196D01*
X5648124Y2169152D01*
X5732763Y2321503D02*
Y2253791D01*
X5665052Y2321503D01*
X5648124D01*
X5631196Y2304575D01*
Y2270719D01*
X5648124Y2253791D01*
X545297Y4594844D02*
X613008D01*
X579153D01*
Y4493277D01*
X646864D02*
Y4594844D01*
X697648D01*
X714576Y4577916D01*
Y4544060D01*
X697648Y4527132D01*
X646864D01*
X748432Y4577916D02*
X765359Y4594844D01*
X799215D01*
X816143Y4577916D01*
Y4560988D01*
X799215Y4544060D01*
X816143Y4527132D01*
Y4510204D01*
X799215Y4493277D01*
X765359D01*
X748432Y4510204D01*
Y4527132D01*
X765359Y4544060D01*
X748432Y4560988D01*
Y4577916D01*
X765359Y4544060D02*
X799215D01*
X2945597Y5321284D02*
X3013308D01*
X2979453D01*
Y5219717D01*
X3047164D02*
Y5321284D01*
X3097948D01*
X3114876Y5304356D01*
Y5270500D01*
X3097948Y5253572D01*
X3047164D01*
X3216443Y5321284D02*
X3182587Y5304356D01*
X3148732Y5270500D01*
Y5236644D01*
X3165659Y5219717D01*
X3199515D01*
X3216443Y5236644D01*
Y5253572D01*
X3199515Y5270500D01*
X3148732D01*
X317516Y4700737D02*
Y4768449D01*
Y4734593D01*
X419083D01*
Y4802305D02*
X317516D01*
Y4853088D01*
X334444Y4870016D01*
X368300D01*
X385228Y4853088D01*
Y4802305D01*
X317516Y4971583D02*
Y4903872D01*
X368300D01*
X351372Y4937727D01*
Y4954655D01*
X368300Y4971583D01*
X402155D01*
X419083Y4954655D01*
Y4920800D01*
X402155Y4903872D01*
X1457157Y5242544D02*
X1524868D01*
X1491013D01*
Y5140977D01*
X1558724D02*
Y5242544D01*
X1609508D01*
X1626436Y5225616D01*
Y5191760D01*
X1609508Y5174832D01*
X1558724D01*
X1728003Y5140977D02*
X1660292D01*
X1728003Y5208688D01*
Y5225616D01*
X1711075Y5242544D01*
X1677219D01*
X1660292Y5225616D01*
X784876Y5080885D02*
Y5148596D01*
Y5114741D01*
X886443D01*
Y5182452D02*
X784876D01*
Y5233236D01*
X801804Y5250163D01*
X835660D01*
X852588Y5233236D01*
Y5182452D01*
X886443Y5284019D02*
Y5317875D01*
Y5300947D01*
X784876D01*
X801804Y5284019D01*
X3289283Y771357D02*
X3187716D01*
Y822141D01*
X3204644Y839068D01*
X3238500D01*
X3255428Y822141D01*
Y771357D01*
Y805213D02*
X3289283Y839068D01*
Y940636D02*
Y872924D01*
X3221572Y940636D01*
X3204644D01*
X3187716Y923708D01*
Y889852D01*
X3204644Y872924D01*
Y974492D02*
X3187716Y991419D01*
Y1025275D01*
X3204644Y1042203D01*
X3221572D01*
X3238500Y1025275D01*
X3255428Y1042203D01*
X3272356D01*
X3289283Y1025275D01*
Y991419D01*
X3272356Y974492D01*
X3255428D01*
X3238500Y991419D01*
X3221572Y974492D01*
X3204644D01*
X3238500Y991419D02*
Y1025275D01*
X3583137Y1757697D02*
Y1859264D01*
X3633921D01*
X3650848Y1842336D01*
Y1808480D01*
X3633921Y1791552D01*
X3583137D01*
X3616993D02*
X3650848Y1757697D01*
X3752416D02*
X3684704D01*
X3752416Y1825408D01*
Y1842336D01*
X3735488Y1859264D01*
X3701632D01*
X3684704Y1842336D01*
X3786272Y1859264D02*
X3853983D01*
Y1842336D01*
X3786272Y1774624D01*
Y1757697D01*
X3858243Y1327617D02*
X3756676D01*
Y1378401D01*
X3773604Y1395328D01*
X3807460D01*
X3824388Y1378401D01*
Y1327617D01*
Y1361473D02*
X3858243Y1395328D01*
Y1496896D02*
Y1429184D01*
X3790532Y1496896D01*
X3773604D01*
X3756676Y1479968D01*
Y1446112D01*
X3773604Y1429184D01*
X3756676Y1598463D02*
X3773604Y1564607D01*
X3807460Y1530752D01*
X3841316D01*
X3858243Y1547679D01*
Y1581535D01*
X3841316Y1598463D01*
X3824388D01*
X3807460Y1581535D01*
Y1530752D01*
X2481563Y648585D02*
X2379996D01*
Y699368D01*
X2396924Y716296D01*
X2430780D01*
X2447708Y699368D01*
Y648585D01*
Y682441D02*
X2481563Y716296D01*
Y817863D02*
Y750152D01*
X2413852Y817863D01*
X2396924D01*
X2379996Y800936D01*
Y767080D01*
X2396924Y750152D01*
X2481563Y851719D02*
Y885575D01*
Y868647D01*
X2379996D01*
X2396924Y851719D01*
X2879557Y1765317D02*
Y1866884D01*
X2930341D01*
X2947268Y1849956D01*
Y1816100D01*
X2930341Y1799172D01*
X2879557D01*
X2913413D02*
X2947268Y1765317D01*
X3048836D02*
X2981124D01*
X3048836Y1833028D01*
Y1849956D01*
X3031908Y1866884D01*
X2998052D01*
X2981124Y1849956D01*
X3082692D02*
X3099619Y1866884D01*
X3133475D01*
X3150403Y1849956D01*
Y1782244D01*
X3133475Y1765317D01*
X3099619D01*
X3082692Y1782244D01*
Y1849956D01*
X2832952Y4905576D02*
X2816024Y4922504D01*
X2782169D01*
X2765241Y4905576D01*
Y4837864D01*
X2782169Y4820937D01*
X2816024D01*
X2832952Y4837864D01*
X2934519Y4922504D02*
X2866808D01*
Y4871720D01*
X2900664Y4888648D01*
X2917592D01*
X2934519Y4871720D01*
Y4837864D01*
X2917592Y4820937D01*
X2883736D01*
X2866808Y4837864D01*
X2670392Y5177356D02*
X2653464Y5194284D01*
X2619609D01*
X2602681Y5177356D01*
Y5109644D01*
X2619609Y5092717D01*
X2653464D01*
X2670392Y5109644D01*
X2755032Y5092717D02*
Y5194284D01*
X2704248Y5143500D01*
X2771959D01*
X4246061Y3235944D02*
Y3151304D01*
X4262989Y3134377D01*
X4296844D01*
X4313772Y3151304D01*
Y3235944D01*
X4347628Y3219016D02*
X4364556Y3235944D01*
X4398412D01*
X4415339Y3219016D01*
Y3202088D01*
X4398412Y3185160D01*
X4415339Y3168232D01*
Y3151304D01*
X4398412Y3134377D01*
X4364556D01*
X4347628Y3151304D01*
Y3168232D01*
X4364556Y3185160D01*
X4347628Y3202088D01*
Y3219016D01*
X4364556Y3185160D02*
X4398412D01*
X3428181Y734044D02*
Y649404D01*
X3445109Y632477D01*
X3478964D01*
X3495892Y649404D01*
Y734044D01*
X3529748D02*
X3597459D01*
Y717116D01*
X3529748Y649404D01*
Y632477D01*
X2394401Y1176004D02*
Y1091364D01*
X2411329Y1074437D01*
X2445184D01*
X2462112Y1091364D01*
Y1176004D01*
X2563679D02*
X2529824Y1159076D01*
X2495968Y1125220D01*
Y1091364D01*
X2512896Y1074437D01*
X2546752D01*
X2563679Y1091364D01*
Y1108292D01*
X2546752Y1125220D01*
X2495968D01*
X3192796Y4540701D02*
X3277436D01*
X3294363Y4557629D01*
Y4591484D01*
X3277436Y4608412D01*
X3192796D01*
Y4709979D02*
Y4642268D01*
X3243580D01*
X3226652Y4676124D01*
Y4693052D01*
X3243580Y4709979D01*
X3277436D01*
X3294363Y4693052D01*
Y4659196D01*
X3277436Y4642268D01*
X1307281Y5107924D02*
Y5023284D01*
X1324209Y5006357D01*
X1358064D01*
X1374992Y5023284D01*
Y5107924D01*
X1408848Y5090996D02*
X1425776Y5107924D01*
X1459632D01*
X1476559Y5090996D01*
Y5074068D01*
X1459632Y5057140D01*
X1442704D01*
X1459632D01*
X1476559Y5040212D01*
Y5023284D01*
X1459632Y5006357D01*
X1425776D01*
X1408848Y5023284D01*
X1853381Y5179044D02*
Y5094404D01*
X1870309Y5077477D01*
X1904164D01*
X1921092Y5094404D01*
Y5179044D01*
X2022659Y5077477D02*
X1954948D01*
X2022659Y5145188D01*
Y5162116D01*
X2005732Y5179044D01*
X1971876D01*
X1954948Y5162116D01*
X2152249Y6235684D02*
Y6151044D01*
X2169177Y6134117D01*
X2203032D01*
X2219960Y6151044D01*
Y6235684D01*
X2253816Y6134117D02*
X2287672D01*
X2270744D01*
Y6235684D01*
X2253816Y6218756D01*
X4160536Y4021656D02*
X4143608Y4038584D01*
X4109753D01*
X4092825Y4021656D01*
Y4004728D01*
X4109753Y3987800D01*
X4143608D01*
X4160536Y3970872D01*
Y3953944D01*
X4143608Y3937017D01*
X4109753D01*
X4092825Y3953944D01*
X4194392Y4038584D02*
Y3937017D01*
X4228248Y3970872D01*
X4262103Y3937017D01*
Y4038584D01*
X4295959Y3937017D02*
X4329815D01*
X4312887D01*
Y4038584D01*
X4295959Y4021656D01*
X4127483Y2564597D02*
X4025916D01*
Y2615381D01*
X4042844Y2632309D01*
X4076700D01*
X4093628Y2615381D01*
Y2564597D01*
Y2598453D02*
X4127483Y2632309D01*
X4042844Y2666165D02*
X4025916Y2683092D01*
Y2716948D01*
X4042844Y2733876D01*
X4059772D01*
X4076700Y2716948D01*
Y2700020D01*
Y2716948D01*
X4093628Y2733876D01*
X4110555D01*
X4127483Y2716948D01*
Y2683092D01*
X4110555Y2666165D01*
X4127483Y2818515D02*
X4025916D01*
X4076700Y2767732D01*
Y2835443D01*
X3977623Y2729697D02*
X3876056D01*
Y2780481D01*
X3892984Y2797409D01*
X3926840D01*
X3943768Y2780481D01*
Y2729697D01*
Y2763553D02*
X3977623Y2797409D01*
X3892984Y2831265D02*
X3876056Y2848192D01*
Y2882048D01*
X3892984Y2898976D01*
X3909912D01*
X3926840Y2882048D01*
Y2865120D01*
Y2882048D01*
X3943768Y2898976D01*
X3960695D01*
X3977623Y2882048D01*
Y2848192D01*
X3960695Y2831265D01*
X3892984Y2932832D02*
X3876056Y2949760D01*
Y2983615D01*
X3892984Y3000543D01*
X3909912D01*
X3926840Y2983615D01*
Y2966687D01*
Y2983615D01*
X3943768Y3000543D01*
X3960695D01*
X3977623Y2983615D01*
Y2949760D01*
X3960695Y2932832D01*
X5524483Y1944837D02*
X5422916D01*
Y1995621D01*
X5439844Y2012549D01*
X5473700D01*
X5490628Y1995621D01*
Y1944837D01*
Y1978693D02*
X5524483Y2012549D01*
X5439844Y2046405D02*
X5422916Y2063332D01*
Y2097188D01*
X5439844Y2114116D01*
X5456772D01*
X5473700Y2097188D01*
Y2080260D01*
Y2097188D01*
X5490628Y2114116D01*
X5507555D01*
X5524483Y2097188D01*
Y2063332D01*
X5507555Y2046405D01*
X5524483Y2215683D02*
Y2147972D01*
X5456772Y2215683D01*
X5439844D01*
X5422916Y2198755D01*
Y2164900D01*
X5439844Y2147972D01*
X5120623Y1943985D02*
X5019056D01*
Y1994769D01*
X5035984Y2011697D01*
X5069840D01*
X5086768Y1994769D01*
Y1943985D01*
Y1977841D02*
X5120623Y2011697D01*
X5035984Y2045552D02*
X5019056Y2062480D01*
Y2096336D01*
X5035984Y2113264D01*
X5052912D01*
X5069840Y2096336D01*
Y2079408D01*
Y2096336D01*
X5086768Y2113264D01*
X5103695D01*
X5120623Y2096336D01*
Y2062480D01*
X5103695Y2045552D01*
X5120623Y2147120D02*
Y2180975D01*
Y2164047D01*
X5019056D01*
X5035984Y2147120D01*
X4645643Y1947377D02*
X4544076D01*
Y1998161D01*
X4561004Y2015089D01*
X4594860D01*
X4611788Y1998161D01*
Y1947377D01*
Y1981233D02*
X4645643Y2015089D01*
X4561004Y2048945D02*
X4544076Y2065872D01*
Y2099728D01*
X4561004Y2116656D01*
X4577932D01*
X4594860Y2099728D01*
Y2082800D01*
Y2099728D01*
X4611788Y2116656D01*
X4628715D01*
X4645643Y2099728D01*
Y2065872D01*
X4628715Y2048945D01*
X4561004Y2150512D02*
X4544076Y2167440D01*
Y2201295D01*
X4561004Y2218223D01*
X4628715D01*
X4645643Y2201295D01*
Y2167440D01*
X4628715Y2150512D01*
X4561004D01*
X4236703Y1939757D02*
X4135136D01*
Y1990541D01*
X4152064Y2007469D01*
X4185920D01*
X4202848Y1990541D01*
Y1939757D01*
Y1973613D02*
X4236703Y2007469D01*
Y2109036D02*
Y2041325D01*
X4168992Y2109036D01*
X4152064D01*
X4135136Y2092108D01*
Y2058252D01*
X4152064Y2041325D01*
X4219775Y2142892D02*
X4236703Y2159820D01*
Y2193675D01*
X4219775Y2210603D01*
X4152064D01*
X4135136Y2193675D01*
Y2159820D01*
X4152064Y2142892D01*
X4168992D01*
X4185920Y2159820D01*
Y2210603D01*
X1948163Y2219157D02*
X1846596D01*
Y2269941D01*
X1863524Y2286869D01*
X1897380D01*
X1914308Y2269941D01*
Y2219157D01*
Y2253013D02*
X1948163Y2286869D01*
Y2388436D02*
Y2320725D01*
X1880452Y2388436D01*
X1863524D01*
X1846596Y2371508D01*
Y2337652D01*
X1863524Y2320725D01*
X1846596Y2490003D02*
Y2422292D01*
X1897380D01*
X1880452Y2456147D01*
Y2473075D01*
X1897380Y2490003D01*
X1931235D01*
X1948163Y2473075D01*
Y2439220D01*
X1931235Y2422292D01*
X2103103Y2219157D02*
X2001536D01*
Y2269941D01*
X2018464Y2286869D01*
X2052320D01*
X2069248Y2269941D01*
Y2219157D01*
Y2253013D02*
X2103103Y2286869D01*
Y2388436D02*
Y2320725D01*
X2035392Y2388436D01*
X2018464D01*
X2001536Y2371508D01*
Y2337652D01*
X2018464Y2320725D01*
X2103103Y2473075D02*
X2001536D01*
X2052320Y2422292D01*
Y2490003D01*
X1054083Y2229317D02*
X952516D01*
Y2280101D01*
X969444Y2297028D01*
X1003300D01*
X1020228Y2280101D01*
Y2229317D01*
Y2263173D02*
X1054083Y2297028D01*
Y2398596D02*
Y2330884D01*
X986372Y2398596D01*
X969444D01*
X952516Y2381668D01*
Y2347812D01*
X969444Y2330884D01*
Y2432452D02*
X952516Y2449379D01*
Y2483235D01*
X969444Y2500163D01*
X986372D01*
X1003300Y2483235D01*
Y2466307D01*
Y2483235D01*
X1020228Y2500163D01*
X1037156D01*
X1054083Y2483235D01*
Y2449379D01*
X1037156Y2432452D01*
X1211563Y2229317D02*
X1109996D01*
Y2280101D01*
X1126924Y2297028D01*
X1160780D01*
X1177708Y2280101D01*
Y2229317D01*
Y2263173D02*
X1211563Y2297028D01*
Y2398596D02*
Y2330884D01*
X1143852Y2398596D01*
X1126924D01*
X1109996Y2381668D01*
Y2347812D01*
X1126924Y2330884D01*
X1211563Y2500163D02*
Y2432452D01*
X1143852Y2500163D01*
X1126924D01*
X1109996Y2483235D01*
Y2449379D01*
X1126924Y2432452D01*
X2839703Y1356401D02*
X2738136D01*
Y1407185D01*
X2755064Y1424112D01*
X2788920D01*
X2805848Y1407185D01*
Y1356401D01*
Y1390257D02*
X2839703Y1424112D01*
Y1457968D02*
Y1491824D01*
Y1474896D01*
X2738136D01*
X2755064Y1457968D01*
X2822776Y1542608D02*
X2839703Y1559536D01*
Y1593391D01*
X2822776Y1610319D01*
X2755064D01*
X2738136Y1593391D01*
Y1559536D01*
X2755064Y1542608D01*
X2771992D01*
X2788920Y1559536D01*
Y1610319D01*
X5367061Y73677D02*
Y175244D01*
X5417845D01*
X5434772Y158316D01*
Y124460D01*
X5417845Y107532D01*
X5367061D01*
X5400917D02*
X5434772Y73677D01*
X5468628D02*
X5502484D01*
X5485556D01*
Y175244D01*
X5468628Y158316D01*
X5553268D02*
X5570196Y175244D01*
X5604051D01*
X5620979Y158316D01*
Y141388D01*
X5604051Y124460D01*
X5620979Y107532D01*
Y90604D01*
X5604051Y73677D01*
X5570196D01*
X5553268Y90604D01*
Y107532D01*
X5570196Y124460D01*
X5553268Y141388D01*
Y158316D01*
X5570196Y124460D02*
X5604051D01*
X4478061Y71137D02*
Y172704D01*
X4528845D01*
X4545772Y155776D01*
Y121920D01*
X4528845Y104992D01*
X4478061D01*
X4511917D02*
X4545772Y71137D01*
X4579628D02*
X4613484D01*
X4596556D01*
Y172704D01*
X4579628Y155776D01*
X4664268Y172704D02*
X4731979D01*
Y155776D01*
X4664268Y88064D01*
Y71137D01*
X1610401Y63517D02*
Y165084D01*
X1661185D01*
X1678112Y148156D01*
Y114300D01*
X1661185Y97372D01*
X1610401D01*
X1644257D02*
X1678112Y63517D01*
X1711968D02*
X1745824D01*
X1728896D01*
Y165084D01*
X1711968Y148156D01*
X1864319Y165084D02*
X1830463Y148156D01*
X1796608Y114300D01*
Y80444D01*
X1813536Y63517D01*
X1847391D01*
X1864319Y80444D01*
Y97372D01*
X1847391Y114300D01*
X1796608D01*
X762041Y66057D02*
Y167624D01*
X812825D01*
X829752Y150696D01*
Y116840D01*
X812825Y99912D01*
X762041D01*
X795897D02*
X829752Y66057D01*
X863608D02*
X897464D01*
X880536D01*
Y167624D01*
X863608Y150696D01*
X1015959Y167624D02*
X948248D01*
Y116840D01*
X982103Y133768D01*
X999031D01*
X1015959Y116840D01*
Y82984D01*
X999031Y66057D01*
X965176D01*
X948248Y82984D01*
X3662663Y248961D02*
X3561096D01*
Y299745D01*
X3578024Y316672D01*
X3611880D01*
X3628808Y299745D01*
Y248961D01*
Y282817D02*
X3662663Y316672D01*
Y350528D02*
Y384384D01*
Y367456D01*
X3561096D01*
X3578024Y350528D01*
X3662663Y485951D02*
X3561096D01*
X3611880Y435168D01*
Y502879D01*
X2857483Y248961D02*
X2755916D01*
Y299745D01*
X2772844Y316672D01*
X2806700D01*
X2823628Y299745D01*
Y248961D01*
Y282817D02*
X2857483Y316672D01*
Y350528D02*
Y384384D01*
Y367456D01*
X2755916D01*
X2772844Y350528D01*
Y435168D02*
X2755916Y452096D01*
Y485951D01*
X2772844Y502879D01*
X2789772D01*
X2806700Y485951D01*
Y469023D01*
Y485951D01*
X2823628Y502879D01*
X2840556D01*
X2857483Y485951D01*
Y452096D01*
X2840556Y435168D01*
X817863Y3657641D02*
X716296D01*
Y3708425D01*
X733224Y3725352D01*
X767080D01*
X784008Y3708425D01*
Y3657641D01*
Y3691497D02*
X817863Y3725352D01*
Y3759208D02*
Y3793064D01*
Y3776136D01*
X716296D01*
X733224Y3759208D01*
X817863Y3911559D02*
Y3843848D01*
X750152Y3911559D01*
X733224D01*
X716296Y3894631D01*
Y3860776D01*
X733224Y3843848D01*
X820403Y4131769D02*
X718836D01*
Y4182552D01*
X735764Y4199480D01*
X769620D01*
X786548Y4182552D01*
Y4131769D01*
Y4165625D02*
X820403Y4199480D01*
Y4233336D02*
Y4267192D01*
Y4250264D01*
X718836D01*
X735764Y4233336D01*
X820403Y4317976D02*
Y4351831D01*
Y4334903D01*
X718836D01*
X735764Y4317976D01*
X4084303Y5049561D02*
X3982736D01*
Y5100345D01*
X3999664Y5117272D01*
X4033520D01*
X4050448Y5100345D01*
Y5049561D01*
Y5083417D02*
X4084303Y5117272D01*
Y5151128D02*
Y5184984D01*
Y5168056D01*
X3982736D01*
X3999664Y5151128D01*
Y5235768D02*
X3982736Y5252696D01*
Y5286551D01*
X3999664Y5303479D01*
X4067376D01*
X4084303Y5286551D01*
Y5252696D01*
X4067376Y5235768D01*
X3999664D01*
X4505141Y5057157D02*
Y5158724D01*
X4555924D01*
X4572852Y5141796D01*
Y5107940D01*
X4555924Y5091012D01*
X4505141D01*
X4538997D02*
X4572852Y5057157D01*
X4606708Y5074084D02*
X4623636Y5057157D01*
X4657492D01*
X4674419Y5074084D01*
Y5141796D01*
X4657492Y5158724D01*
X4623636D01*
X4606708Y5141796D01*
Y5124868D01*
X4623636Y5107940D01*
X4674419D01*
X2400283Y2595061D02*
X2298716D01*
Y2645844D01*
X2315644Y2662772D01*
X2349500D01*
X2366428Y2645844D01*
Y2595061D01*
Y2628917D02*
X2400283Y2662772D01*
X2298716Y2764339D02*
X2315644Y2730484D01*
X2349500Y2696628D01*
X2383356D01*
X2400283Y2713556D01*
Y2747412D01*
X2383356Y2764339D01*
X2366428D01*
X2349500Y2747412D01*
Y2696628D01*
X2739841Y5908057D02*
Y6009624D01*
X2790624D01*
X2807552Y5992696D01*
Y5958840D01*
X2790624Y5941912D01*
X2739841D01*
X2773697D02*
X2807552Y5908057D01*
X2909119Y6009624D02*
X2841408D01*
Y5958840D01*
X2875264Y5975768D01*
X2892192D01*
X2909119Y5958840D01*
Y5924984D01*
X2892192Y5908057D01*
X2858336D01*
X2841408Y5924984D01*
X1528261Y5897897D02*
Y5999464D01*
X1579044D01*
X1595972Y5982536D01*
Y5948680D01*
X1579044Y5931752D01*
X1528261D01*
X1562117D02*
X1595972Y5897897D01*
X1629828Y5982536D02*
X1646756Y5999464D01*
X1680612D01*
X1697539Y5982536D01*
Y5965608D01*
X1680612Y5948680D01*
X1663684D01*
X1680612D01*
X1697539Y5931752D01*
Y5914824D01*
X1680612Y5897897D01*
X1646756D01*
X1629828Y5914824D01*
X1480001Y5684537D02*
Y5786104D01*
X1530784D01*
X1547712Y5769176D01*
Y5735320D01*
X1530784Y5718392D01*
X1480001D01*
X1513857D02*
X1547712Y5684537D01*
X1649279D02*
X1581568D01*
X1649279Y5752248D01*
Y5769176D01*
X1632352Y5786104D01*
X1598496D01*
X1581568Y5769176D01*
X1126089Y5069857D02*
Y5171424D01*
X1176872D01*
X1193800Y5154496D01*
Y5120640D01*
X1176872Y5103712D01*
X1126089D01*
X1159944D02*
X1193800Y5069857D01*
X1227656D02*
X1261512D01*
X1244584D01*
Y5171424D01*
X1227656Y5154496D01*
X916940Y5554144D02*
Y5621856D01*
X900012Y5638784D01*
X866157D01*
X849229Y5621856D01*
Y5554144D01*
X866157Y5537217D01*
X900012D01*
X883084Y5571072D02*
X916940Y5537217D01*
X900012D02*
X916940Y5554144D01*
X950796Y5537217D02*
X984652D01*
X967724D01*
Y5638784D01*
X950796Y5621856D01*
X5384816Y1548572D02*
Y1514717D01*
Y1531645D01*
X5469456D01*
X5486383Y1514717D01*
Y1497789D01*
X5469456Y1480861D01*
X5486383Y1582428D02*
Y1616284D01*
Y1599356D01*
X5384816D01*
X5401744Y1582428D01*
Y1667068D02*
X5384816Y1683996D01*
Y1717851D01*
X5401744Y1734779D01*
X5469456D01*
X5486383Y1717851D01*
Y1683996D01*
X5469456Y1667068D01*
X5401744D01*
X4043696Y1628992D02*
Y1595137D01*
Y1612064D01*
X4128336D01*
X4145263Y1595137D01*
Y1578209D01*
X4128336Y1561281D01*
Y1662848D02*
X4145263Y1679776D01*
Y1713632D01*
X4128336Y1730559D01*
X4060624D01*
X4043696Y1713632D01*
Y1679776D01*
X4060624Y1662848D01*
X4077552D01*
X4094480Y1679776D01*
Y1730559D01*
X2202196Y1639152D02*
Y1605297D01*
Y1622224D01*
X2286836D01*
X2303763Y1605297D01*
Y1588369D01*
X2286836Y1571441D01*
X2219124Y1673008D02*
X2202196Y1689936D01*
Y1723792D01*
X2219124Y1740719D01*
X2236052D01*
X2252980Y1723792D01*
X2269908Y1740719D01*
X2286836D01*
X2303763Y1723792D01*
Y1689936D01*
X2286836Y1673008D01*
X2269908D01*
X2252980Y1689936D01*
X2236052Y1673008D01*
X2219124D01*
X2252980Y1689936D02*
Y1723792D01*
X868696Y1644232D02*
Y1610377D01*
Y1627304D01*
X953336D01*
X970263Y1610377D01*
Y1593449D01*
X953336Y1576521D01*
X868696Y1678088D02*
Y1745799D01*
X885624D01*
X953336Y1678088D01*
X970263D01*
X3254592Y5666724D02*
X3220737D01*
X3237664D01*
Y5582084D01*
X3220737Y5565157D01*
X3203809D01*
X3186881Y5582084D01*
X3339232Y5565157D02*
Y5666724D01*
X3288448Y5615940D01*
X3356159D01*
X4656672Y5669264D02*
X4622817D01*
X4639744D01*
Y5584624D01*
X4622817Y5567697D01*
X4605889D01*
X4588961Y5584624D01*
X4690528Y5652336D02*
X4707456Y5669264D01*
X4741312D01*
X4758239Y5652336D01*
Y5635408D01*
X4741312Y5618480D01*
X4724384D01*
X4741312D01*
X4758239Y5601552D01*
Y5584624D01*
X4741312Y5567697D01*
X4707456D01*
X4690528Y5584624D01*
X624856Y6014720D02*
Y5980864D01*
Y5997792D01*
X709496D01*
X726423Y5980864D01*
Y5963937D01*
X709496Y5947009D01*
X726423Y6048576D02*
Y6082432D01*
Y6065504D01*
X624856D01*
X641784Y6048576D01*
X1554496Y3416316D02*
Y3348605D01*
X1605280D01*
Y3382461D01*
Y3348605D01*
X1656063D01*
X1554496Y3450172D02*
X1656063D01*
Y3500956D01*
X1639136Y3517883D01*
X1622208D01*
X1605280Y3500956D01*
Y3450172D01*
Y3500956D01*
X1588352Y3517883D01*
X1571424D01*
X1554496Y3500956D01*
Y3450172D01*
X1656063Y3551739D02*
Y3585595D01*
Y3568667D01*
X1554496D01*
X1571424Y3551739D01*
X5369601Y307324D02*
Y205757D01*
X5420385D01*
X5437312Y222684D01*
Y290396D01*
X5420385Y307324D01*
X5369601D01*
X5471168Y205757D02*
X5505024D01*
X5488096D01*
Y307324D01*
X5471168Y290396D01*
X5623519Y205757D02*
X5555808D01*
X5623519Y273468D01*
Y290396D01*
X5606591Y307324D01*
X5572736D01*
X5555808Y290396D01*
X4477209Y309864D02*
Y208297D01*
X4527992D01*
X4544920Y225224D01*
Y292936D01*
X4527992Y309864D01*
X4477209D01*
X4578776Y208297D02*
X4612632D01*
X4595704D01*
Y309864D01*
X4578776Y292936D01*
X4663416Y208297D02*
X4697271D01*
X4680343D01*
Y309864D01*
X4663416Y292936D01*
X1610401Y299704D02*
Y198137D01*
X1661185D01*
X1678112Y215064D01*
Y282776D01*
X1661185Y299704D01*
X1610401D01*
X1711968Y198137D02*
X1745824D01*
X1728896D01*
Y299704D01*
X1711968Y282776D01*
X1796608D02*
X1813536Y299704D01*
X1847391D01*
X1864319Y282776D01*
Y215064D01*
X1847391Y198137D01*
X1813536D01*
X1796608Y215064D01*
Y282776D01*
X758641Y314944D02*
Y213377D01*
X809424D01*
X826352Y230304D01*
Y298016D01*
X809424Y314944D01*
X758641D01*
X860208Y230304D02*
X877136Y213377D01*
X910992D01*
X927919Y230304D01*
Y298016D01*
X910992Y314944D01*
X877136D01*
X860208Y298016D01*
Y281088D01*
X877136Y264160D01*
X927919D01*
X3429016Y80461D02*
X3530583D01*
Y131244D01*
X3513656Y148172D01*
X3445944D01*
X3429016Y131244D01*
Y80461D01*
X3445944Y182028D02*
X3429016Y198956D01*
Y232812D01*
X3445944Y249739D01*
X3462872D01*
X3479800Y232812D01*
X3496728Y249739D01*
X3513656D01*
X3530583Y232812D01*
Y198956D01*
X3513656Y182028D01*
X3496728D01*
X3479800Y198956D01*
X3462872Y182028D01*
X3445944D01*
X3479800Y198956D02*
Y232812D01*
X2910856Y90621D02*
X3012423D01*
Y141404D01*
X2995496Y158332D01*
X2927784D01*
X2910856Y141404D01*
Y90621D01*
Y192188D02*
Y259899D01*
X2927784D01*
X2995496Y192188D01*
X3012423D01*
X571516Y3689801D02*
X673083D01*
Y3740584D01*
X656156Y3757512D01*
X588444D01*
X571516Y3740584D01*
Y3689801D01*
Y3859079D02*
X588444Y3825224D01*
X622300Y3791368D01*
X656156D01*
X673083Y3808296D01*
Y3842152D01*
X656156Y3859079D01*
X639228D01*
X622300Y3842152D01*
Y3791368D01*
X566436Y4154621D02*
X668003D01*
Y4205404D01*
X651076Y4222332D01*
X583364D01*
X566436Y4205404D01*
Y4154621D01*
Y4323899D02*
Y4256188D01*
X617220D01*
X600292Y4290044D01*
Y4306972D01*
X617220Y4323899D01*
X651076D01*
X668003Y4306972D01*
Y4273116D01*
X651076Y4256188D01*
X5980881Y2486644D02*
Y2385077D01*
X6031664D01*
X6048592Y2402004D01*
Y2469716D01*
X6031664Y2486644D01*
X5980881D01*
X6082448Y2469716D02*
X6099376Y2486644D01*
X6133232D01*
X6150159Y2469716D01*
Y2452788D01*
X6133232Y2435860D01*
X6116304D01*
X6133232D01*
X6150159Y2418932D01*
Y2402004D01*
X6133232Y2385077D01*
X6099376D01*
X6082448Y2402004D01*
X3329956Y5000441D02*
X3431523D01*
Y5051224D01*
X3414596Y5068152D01*
X3346884D01*
X3329956Y5051224D01*
Y5000441D01*
X3431523Y5169719D02*
Y5102008D01*
X3363812Y5169719D01*
X3346884D01*
X3329956Y5152792D01*
Y5118936D01*
X3346884Y5102008D01*
X2657709Y5539724D02*
Y5438157D01*
X2708492D01*
X2725420Y5455084D01*
Y5522796D01*
X2708492Y5539724D01*
X2657709D01*
X2759276Y5438157D02*
X2793132D01*
X2776204D01*
Y5539724D01*
X2759276Y5522796D01*
X4334108Y2406216D02*
X4317181Y2423144D01*
X4283325D01*
X4266397Y2406216D01*
Y2338504D01*
X4283325Y2321577D01*
X4317181D01*
X4334108Y2338504D01*
X4435676Y2321577D02*
X4367964D01*
X4435676Y2389288D01*
Y2406216D01*
X4418748Y2423144D01*
X4384892D01*
X4367964Y2406216D01*
X4469532D02*
X4486459Y2423144D01*
X4520315D01*
X4537243Y2406216D01*
Y2389288D01*
X4520315Y2372360D01*
X4537243Y2355432D01*
Y2338504D01*
X4520315Y2321577D01*
X4486459D01*
X4469532Y2338504D01*
Y2355432D01*
X4486459Y2372360D01*
X4469532Y2389288D01*
Y2406216D01*
X4486459Y2372360D02*
X4520315D01*
X3097964Y2187808D02*
X3081036Y2170881D01*
Y2137025D01*
X3097964Y2120097D01*
X3165676D01*
X3182603Y2137025D01*
Y2170881D01*
X3165676Y2187808D01*
X3182603Y2289376D02*
Y2221664D01*
X3114892Y2289376D01*
X3097964D01*
X3081036Y2272448D01*
Y2238592D01*
X3097964Y2221664D01*
X3081036Y2323232D02*
Y2390943D01*
X3097964D01*
X3165676Y2323232D01*
X3182603D01*
X2963344Y2187808D02*
X2946416Y2170881D01*
Y2137025D01*
X2963344Y2120097D01*
X3031056D01*
X3047983Y2137025D01*
Y2170881D01*
X3031056Y2187808D01*
X3047983Y2289376D02*
Y2221664D01*
X2980272Y2289376D01*
X2963344D01*
X2946416Y2272448D01*
Y2238592D01*
X2963344Y2221664D01*
X3047983Y2374015D02*
X2946416D01*
X2997200Y2323232D01*
Y2390943D01*
X3749908Y709496D02*
X3732981Y726424D01*
X3699125D01*
X3682197Y709496D01*
Y641784D01*
X3699125Y624857D01*
X3732981D01*
X3749908Y641784D01*
X3851476Y624857D02*
X3783764D01*
X3851476Y692568D01*
Y709496D01*
X3834548Y726424D01*
X3800692D01*
X3783764Y709496D01*
X3953043Y726424D02*
X3919187Y709496D01*
X3885332Y675640D01*
Y641784D01*
X3902259Y624857D01*
X3936115D01*
X3953043Y641784D01*
Y658712D01*
X3936115Y675640D01*
X3885332D01*
X3335888Y1283536D02*
X3318961Y1300464D01*
X3285105D01*
X3268177Y1283536D01*
Y1215824D01*
X3285105Y1198897D01*
X3318961D01*
X3335888Y1215824D01*
X3437456Y1198897D02*
X3369744D01*
X3437456Y1266608D01*
Y1283536D01*
X3420528Y1300464D01*
X3386672D01*
X3369744Y1283536D01*
X3539023Y1300464D02*
X3471312D01*
Y1249680D01*
X3505167Y1266608D01*
X3522095D01*
X3539023Y1249680D01*
Y1215824D01*
X3522095Y1198897D01*
X3488239D01*
X3471312Y1215824D01*
X2828724Y2187808D02*
X2811796Y2170881D01*
Y2137025D01*
X2828724Y2120097D01*
X2896436D01*
X2913363Y2137025D01*
Y2170881D01*
X2896436Y2187808D01*
X2913363Y2289376D02*
Y2221664D01*
X2845652Y2289376D01*
X2828724D01*
X2811796Y2272448D01*
Y2238592D01*
X2828724Y2221664D01*
Y2323232D02*
X2811796Y2340159D01*
Y2374015D01*
X2828724Y2390943D01*
X2845652D01*
X2862580Y2374015D01*
Y2357087D01*
Y2374015D01*
X2879508Y2390943D01*
X2896436D01*
X2913363Y2374015D01*
Y2340159D01*
X2896436Y2323232D01*
X2573888Y2512896D02*
X2556961Y2529824D01*
X2523105D01*
X2506177Y2512896D01*
Y2445184D01*
X2523105Y2428257D01*
X2556961D01*
X2573888Y2445184D01*
X2675456Y2428257D02*
X2607744D01*
X2675456Y2495968D01*
Y2512896D01*
X2658528Y2529824D01*
X2624672D01*
X2607744Y2512896D01*
X2709312D02*
X2726239Y2529824D01*
X2760095D01*
X2777023Y2512896D01*
Y2445184D01*
X2760095Y2428257D01*
X2726239D01*
X2709312Y2445184D01*
Y2512896D01*
X3000608Y717116D02*
X2983681Y734044D01*
X2949825D01*
X2932897Y717116D01*
Y649404D01*
X2949825Y632477D01*
X2983681D01*
X3000608Y649404D01*
X3102176Y632477D02*
X3034464D01*
X3102176Y700188D01*
Y717116D01*
X3085248Y734044D01*
X3051392D01*
X3034464Y717116D01*
X3203743Y632477D02*
X3136032D01*
X3203743Y700188D01*
Y717116D01*
X3186815Y734044D01*
X3152959D01*
X3136032Y717116D01*
X3037856Y1286076D02*
X3020928Y1303004D01*
X2987073D01*
X2970145Y1286076D01*
Y1218364D01*
X2987073Y1201437D01*
X3020928D01*
X3037856Y1218364D01*
X3139423Y1201437D02*
X3071712D01*
X3139423Y1269148D01*
Y1286076D01*
X3122496Y1303004D01*
X3088640D01*
X3071712Y1286076D01*
X3173279Y1201437D02*
X3207135D01*
X3190207D01*
Y1303004D01*
X3173279Y1286076D01*
X3034472Y3843856D02*
X3017545Y3860784D01*
X2983689D01*
X2966761Y3843856D01*
Y3776144D01*
X2983689Y3759217D01*
X3017545D01*
X3034472Y3776144D01*
X3068328Y3759217D02*
X3102184D01*
X3085256D01*
Y3860784D01*
X3068328Y3843856D01*
X3152968Y3776144D02*
X3169896Y3759217D01*
X3203751D01*
X3220679Y3776144D01*
Y3843856D01*
X3203751Y3860784D01*
X3169896D01*
X3152968Y3843856D01*
Y3826928D01*
X3169896Y3810000D01*
X3220679D01*
X2462964Y2661092D02*
X2446036Y2644165D01*
Y2610309D01*
X2462964Y2593381D01*
X2530676D01*
X2547603Y2610309D01*
Y2644165D01*
X2530676Y2661092D01*
X2547603Y2694948D02*
Y2728804D01*
Y2711876D01*
X2446036D01*
X2462964Y2694948D01*
Y2779588D02*
X2446036Y2796516D01*
Y2830371D01*
X2462964Y2847299D01*
X2479892D01*
X2496820Y2830371D01*
X2513748Y2847299D01*
X2530676D01*
X2547603Y2830371D01*
Y2796516D01*
X2530676Y2779588D01*
X2513748D01*
X2496820Y2796516D01*
X2479892Y2779588D01*
X2462964D01*
X2496820Y2796516D02*
Y2830371D01*
X4246052Y5347536D02*
X4229125Y5364464D01*
X4195269D01*
X4178341Y5347536D01*
Y5279824D01*
X4195269Y5262897D01*
X4229125D01*
X4246052Y5279824D01*
X4279908Y5262897D02*
X4313764D01*
X4296836D01*
Y5364464D01*
X4279908Y5347536D01*
X4364548Y5364464D02*
X4432259D01*
Y5347536D01*
X4364548Y5279824D01*
Y5262897D01*
X3862504Y4901372D02*
X3845576Y4884445D01*
Y4850589D01*
X3862504Y4833661D01*
X3930216D01*
X3947143Y4850589D01*
Y4884445D01*
X3930216Y4901372D01*
X3947143Y4935228D02*
Y4969084D01*
Y4952156D01*
X3845576D01*
X3862504Y4935228D01*
X3845576Y5087579D02*
X3862504Y5053723D01*
X3896360Y5019868D01*
X3930216D01*
X3947143Y5036796D01*
Y5070651D01*
X3930216Y5087579D01*
X3913288D01*
X3896360Y5070651D01*
Y5019868D01*
X3557712Y3813376D02*
X3540785Y3830304D01*
X3506929D01*
X3490001Y3813376D01*
Y3745664D01*
X3506929Y3728737D01*
X3540785D01*
X3557712Y3745664D01*
X3591568Y3728737D02*
X3625424D01*
X3608496D01*
Y3830304D01*
X3591568Y3813376D01*
X3743919Y3830304D02*
X3676208D01*
Y3779520D01*
X3710063Y3796448D01*
X3726991D01*
X3743919Y3779520D01*
Y3745664D01*
X3726991Y3728737D01*
X3693136D01*
X3676208Y3745664D01*
X2066732Y2609416D02*
X2049805Y2626344D01*
X2015949D01*
X1999021Y2609416D01*
Y2541704D01*
X2015949Y2524777D01*
X2049805D01*
X2066732Y2541704D01*
X2100588Y2524777D02*
X2134444D01*
X2117516D01*
Y2626344D01*
X2100588Y2609416D01*
X2236011Y2524777D02*
Y2626344D01*
X2185228Y2575560D01*
X2252939D01*
X2064192Y3381576D02*
X2047265Y3398504D01*
X2013409D01*
X1996481Y3381576D01*
Y3313864D01*
X2013409Y3296937D01*
X2047265D01*
X2064192Y3313864D01*
X2098048Y3296937D02*
X2131904D01*
X2114976D01*
Y3398504D01*
X2098048Y3381576D01*
X2182688D02*
X2199616Y3398504D01*
X2233471D01*
X2250399Y3381576D01*
Y3364648D01*
X2233471Y3347720D01*
X2216543D01*
X2233471D01*
X2250399Y3330792D01*
Y3313864D01*
X2233471Y3296937D01*
X2199616D01*
X2182688Y3313864D01*
X1736524Y3410392D02*
X1719596Y3393465D01*
Y3359609D01*
X1736524Y3342681D01*
X1804236D01*
X1821163Y3359609D01*
Y3393465D01*
X1804236Y3410392D01*
X1821163Y3444248D02*
Y3478104D01*
Y3461176D01*
X1719596D01*
X1736524Y3444248D01*
X1821163Y3596599D02*
Y3528888D01*
X1753452Y3596599D01*
X1736524D01*
X1719596Y3579671D01*
Y3545816D01*
X1736524Y3528888D01*
X1408864Y3412080D02*
X1391936Y3395152D01*
Y3361297D01*
X1408864Y3344369D01*
X1476576D01*
X1493503Y3361297D01*
Y3395152D01*
X1476576Y3412080D01*
X1493503Y3445936D02*
Y3479792D01*
Y3462864D01*
X1391936D01*
X1408864Y3445936D01*
X1493503Y3530576D02*
Y3564431D01*
Y3547503D01*
X1391936D01*
X1408864Y3530576D01*
X1736524Y3092892D02*
X1719596Y3075965D01*
Y3042109D01*
X1736524Y3025181D01*
X1804236D01*
X1821163Y3042109D01*
Y3075965D01*
X1804236Y3092892D01*
X1821163Y3126748D02*
Y3160604D01*
Y3143676D01*
X1719596D01*
X1736524Y3126748D01*
Y3211388D02*
X1719596Y3228316D01*
Y3262171D01*
X1736524Y3279099D01*
X1804236D01*
X1821163Y3262171D01*
Y3228316D01*
X1804236Y3211388D01*
X1736524D01*
X1573964Y3097112D02*
X1557036Y3080184D01*
Y3046329D01*
X1573964Y3029401D01*
X1641676D01*
X1658603Y3046329D01*
Y3080184D01*
X1641676Y3097112D01*
Y3130968D02*
X1658603Y3147896D01*
Y3181752D01*
X1641676Y3198679D01*
X1573964D01*
X1557036Y3181752D01*
Y3147896D01*
X1573964Y3130968D01*
X1590892D01*
X1607820Y3147896D01*
Y3198679D01*
X760312Y4928436D02*
X743384Y4945364D01*
X709529D01*
X692601Y4928436D01*
Y4860724D01*
X709529Y4843797D01*
X743384D01*
X760312Y4860724D01*
X794168Y4928436D02*
X811096Y4945364D01*
X844952D01*
X861879Y4928436D01*
Y4911508D01*
X844952Y4894580D01*
X861879Y4877652D01*
Y4860724D01*
X844952Y4843797D01*
X811096D01*
X794168Y4860724D01*
Y4877652D01*
X811096Y4894580D01*
X794168Y4911508D01*
Y4928436D01*
X811096Y4894580D02*
X844952D01*
X1670484Y4522052D02*
X1653556Y4505124D01*
Y4471269D01*
X1670484Y4454341D01*
X1738196D01*
X1755123Y4471269D01*
Y4505124D01*
X1738196Y4522052D01*
X1653556Y4623619D02*
X1670484Y4589764D01*
X1704340Y4555908D01*
X1738196D01*
X1755123Y4572836D01*
Y4606692D01*
X1738196Y4623619D01*
X1721268D01*
X1704340Y4606692D01*
Y4555908D01*
X1528244Y4532212D02*
X1511316Y4515284D01*
Y4481429D01*
X1528244Y4464501D01*
X1595956D01*
X1612883Y4481429D01*
Y4515284D01*
X1595956Y4532212D01*
X1511316Y4566068D02*
Y4633779D01*
X1528244D01*
X1595956Y4566068D01*
X1612883D01*
X1989672Y5393256D02*
X1972744Y5410184D01*
X1938889D01*
X1921961Y5393256D01*
Y5325544D01*
X1938889Y5308617D01*
X1972744D01*
X1989672Y5325544D01*
X2023528Y5393256D02*
X2040456Y5410184D01*
X2074312D01*
X2091239Y5393256D01*
Y5376328D01*
X2074312Y5359400D01*
X2057384D01*
X2074312D01*
X2091239Y5342472D01*
Y5325544D01*
X2074312Y5308617D01*
X2040456D01*
X2023528Y5325544D01*
X1761924Y6175592D02*
X1744996Y6158664D01*
Y6124809D01*
X1761924Y6107881D01*
X1829636D01*
X1846563Y6124809D01*
Y6158664D01*
X1829636Y6175592D01*
X1846563Y6277159D02*
Y6209448D01*
X1778852Y6277159D01*
X1761924D01*
X1744996Y6260232D01*
Y6226376D01*
X1761924Y6209448D01*
X1777164Y5336540D02*
X1760236Y5319612D01*
Y5285757D01*
X1777164Y5268829D01*
X1844876D01*
X1861803Y5285757D01*
Y5319612D01*
X1844876Y5336540D01*
X1861803Y5370396D02*
Y5404252D01*
Y5387324D01*
X1760236D01*
X1777164Y5370396D01*
D79*
X1136500Y5311000D02*
X1236500D01*
X1136500D02*
Y5396000D01*
Y5611000D02*
X1236500D01*
X1136500Y5526000D02*
Y5611000D01*
D80*
X5661600Y3014000D02*
X6136600Y3014000D01*
Y3844000D01*
X5661600D02*
X6136600D01*
X5661600Y3014000D02*
Y3844000D01*
D81*
X700911Y3233727D02*
X726669Y3259485D01*
Y3311002D01*
X700911Y3336760D01*
X675153D01*
X649395Y3311002D01*
Y3259485D01*
X623636Y3233727D01*
X597878D01*
X572120Y3259485D01*
Y3311002D01*
X597878Y3336760D01*
X572120Y3182211D02*
X675153D01*
X726669Y3130694D01*
X675153Y3079177D01*
X572120D01*
X649395D01*
Y3182211D01*
X726669Y2924628D02*
Y3027661D01*
X572120D01*
Y2924628D01*
X649395Y3027661D02*
Y2976144D01*
X623636Y2641287D02*
X649395D01*
Y2667045D01*
X623636D01*
Y2641287D01*
X649395Y2615529D01*
X700911D01*
X726669Y2641287D01*
Y2692803D01*
X700911Y2718562D01*
X597878D01*
X572120Y2692803D01*
Y2615529D01*
X726669Y2409463D02*
X597878D01*
X572120Y2383704D01*
Y2332188D01*
X597878Y2306429D01*
X726669D01*
Y2254913D02*
Y2203396D01*
Y2229155D01*
X572120D01*
Y2254913D01*
Y2203396D01*
X700911Y2023088D02*
X726669Y2048847D01*
Y2100363D01*
X700911Y2126121D01*
X597878D01*
X572120Y2100363D01*
Y2048847D01*
X597878Y2023088D01*
%TF.MD5,0c5186e03c367c68b02fe524bccfd392*%
M02*
