%TF.GenerationSoftware,Altium Limited,Altium Designer,24.5.2 (23)*%
G04 Layer_Color=255*
%FSLAX45Y45*%
%MOMM*%
%TF.SameCoordinates,627A3E5C-85DC-498E-B9C8-82595492641C*%
%TF.FilePolarity,Positive*%
%TF.FileFunction,Pads,Bot*%
%TF.Part,Single*%
G01*
G75*
%TA.AperFunction,ViaPad*%
%ADD53C,5.08000*%
%TA.AperFunction,ComponentPad*%
%ADD54C,1.52000*%
%ADD55C,1.27000*%
%ADD56R,1.52000X1.52000*%
%ADD57R,1.15800X1.15800*%
%ADD58C,1.15800*%
%ADD59R,1.52000X1.52000*%
%ADD60O,1.10000X2.20000*%
%ADD61O,1.10000X1.80000*%
D53*
X1206500Y5969000D02*
D03*
X5969000D02*
D03*
Y381000D02*
D03*
X381000D02*
D03*
D54*
X2032000Y1443000D02*
D03*
Y1143000D02*
D03*
X444500Y5778500D02*
D03*
X5189500Y5842000D02*
D03*
X3792500D02*
D03*
X1143000Y1143000D02*
D03*
Y843000D02*
D03*
X4318000Y1143000D02*
D03*
Y843000D02*
D03*
X5207000Y1143000D02*
D03*
Y1443000D02*
D03*
D55*
X1836000Y1743000D02*
D03*
Y543000D02*
D03*
X248500Y5178500D02*
D03*
Y6078500D02*
D03*
X4589500Y6038000D02*
D03*
X5489500Y6038000D02*
D03*
X3192500Y6038000D02*
D03*
X4092500D02*
D03*
X1339000Y1743000D02*
D03*
Y543000D02*
D03*
X4514000Y1743000D02*
D03*
Y543000D02*
D03*
X5011000Y543000D02*
D03*
Y1743000D02*
D03*
D56*
X2032000Y843000D02*
D03*
X444500Y5478500D02*
D03*
X1143000Y1443000D02*
D03*
X4318000D02*
D03*
X5207000Y843000D02*
D03*
D57*
X6032500Y4191000D02*
D03*
D58*
Y4318000D02*
D03*
Y4572000D02*
D03*
X6032500Y4699000D02*
D03*
X5905501Y4191000D02*
D03*
X5905500Y4318001D02*
D03*
X5905500Y4445000D02*
D03*
X5905500Y4572000D02*
D03*
Y4699000D02*
D03*
X6032500Y4445000D02*
D03*
D59*
X4889500Y5842000D02*
D03*
X3492500D02*
D03*
D60*
X6006600Y3429000D02*
D03*
D61*
X5791600Y3709000D02*
D03*
Y3149000D02*
D03*
%TF.MD5,9d5fc499229795fb41a8d540c91060b2*%
M02*
