%TF.GenerationSoftware,Altium Limited,Altium Designer,24.5.2 (23)*%
G04 Layer_Physical_Order=4*
G04 Layer_Color=16711680*
%FSLAX45Y45*%
%MOMM*%
%TF.SameCoordinates,627A3E5C-85DC-498E-B9C8-82595492641C*%
%TF.FilePolarity,Positive*%
%TF.FileFunction,Copper,L4,Bot,Signal*%
%TF.Part,Single*%
G01*
G75*
%TA.AperFunction,Conductor*%
%ADD41C,0.76200*%
%ADD42C,0.20320*%
%TA.AperFunction,ViaPad*%
%ADD53C,5.08000*%
%TA.AperFunction,ComponentPad*%
%ADD54C,1.52000*%
%ADD55C,1.27000*%
%ADD56R,1.52000X1.52000*%
%ADD57R,1.15800X1.15800*%
%ADD58C,1.15800*%
%ADD59R,1.52000X1.52000*%
%ADD60O,1.10000X2.20000*%
%ADD61O,1.10000X1.80000*%
%TA.AperFunction,ViaPad*%
%ADD62C,0.50000*%
%ADD63C,0.76200*%
D41*
X3276600Y1587500D02*
X3841563D01*
X3886200Y1632137D02*
Y2197100D01*
X3841563Y1587500D02*
X3886200Y1632137D01*
X5448300Y2603500D02*
Y2882900D01*
X4025900Y2336800D02*
X5181600D01*
X5448300Y2603500D01*
X3721100Y3911600D02*
X4419600D01*
X5448300Y2882900D01*
X3886200Y2197100D02*
X4025900Y2336800D01*
X2989580Y4643120D02*
X3721100Y3911600D01*
X2989580Y4643120D02*
Y4719320D01*
D42*
X2387600Y558800D02*
Y1559560D01*
X2578100Y368300D02*
X4470400D01*
X2387600Y558800D02*
X2578100Y368300D01*
X2707640Y1018540D02*
Y1681480D01*
Y1018540D02*
X3218180Y508000D01*
X3492500D01*
X3416300Y4569460D02*
Y4767580D01*
X2788920Y2611120D02*
X3098800Y2921000D01*
X3263900Y2057400D02*
X3472180Y2265680D01*
X3644900Y2057400D02*
X3746500Y2159000D01*
Y2860040D01*
X3441700Y2870200D02*
Y2951480D01*
Y2870200D02*
X3606800Y2705100D01*
X3393840Y2813920D02*
X3538220Y2669540D01*
X3393840Y2813920D02*
Y2984900D01*
X3439160Y3030220D01*
X2608720Y2110880D02*
X2641740D01*
X2644140Y2113280D01*
X2184400Y1686560D02*
X2608720Y2110880D01*
X3187700Y2382520D02*
Y2903220D01*
X2788920Y2489200D02*
Y2611120D01*
X2727960Y2636520D02*
X2908300Y2816860D01*
Y2898140D01*
X2828763Y2976880D02*
X2905760D01*
X2811780Y2959897D02*
X2828763Y2976880D01*
X2879761Y2074581D02*
X2885440Y2080260D01*
X2387600Y1559560D02*
X2879761Y2051721D01*
Y2074581D01*
X2255520Y146523D02*
Y1648460D01*
X2235997Y127000D02*
X2255520Y146523D01*
Y1648460D02*
X2580780Y1973720D01*
X2585449D02*
X2598009Y1986280D01*
X2580780Y1973720D02*
X2585449D01*
X2758440Y2040417D02*
Y2042160D01*
X2316480Y1598457D02*
X2758440Y2040417D01*
X3416300Y4569460D02*
X3954780Y4030980D01*
X3060700Y3530600D02*
X3746500D01*
X2540000Y3009900D02*
X3060700Y3530600D01*
X2540000Y2921000D02*
Y3009900D01*
X2811780Y2816860D02*
Y2959897D01*
X3472180Y2265680D02*
Y2618740D01*
X3538220Y2204720D02*
Y2669540D01*
X3390900Y2057400D02*
X3538220Y2204720D01*
X3517900Y2057400D02*
X3606800Y2146300D01*
Y2705100D01*
X2316480Y515620D02*
Y1598457D01*
X2184400Y419100D02*
Y1686560D01*
X2540000Y292100D02*
X3797300D01*
X2316480Y515620D02*
X2540000Y292100D01*
X2296160Y1899920D02*
X2720340Y2324100D01*
X3129280D01*
X2296160Y1996440D02*
X2788920Y2489200D01*
X2253579Y2057999D02*
X2727960Y2532380D01*
X2235799Y2057999D02*
X2253579D01*
X2230120Y2052320D02*
X2235799Y2057999D01*
X2727960Y2532380D02*
Y2636520D01*
X2230120Y2138680D02*
X2659380Y2567940D01*
Y2664460D01*
X2633980Y1711960D02*
X3329940Y2407920D01*
X2633980Y1005840D02*
Y1711960D01*
X3329940Y2407920D02*
Y2618740D01*
X2707640Y1681480D02*
X3401060Y2374900D01*
Y2618740D01*
X2633980Y1005840D02*
X2921000Y718820D01*
X3129280Y2324100D02*
X3187700Y2382520D01*
X2659380Y2664460D02*
X2811780Y2816860D01*
X2921000Y508000D02*
Y718820D01*
X2171700Y127000D02*
X2235997D01*
X2133600Y368300D02*
X2184400Y419100D01*
X4470400Y368300D02*
X4711700Y127000D01*
X1574800Y368300D02*
X2133600D01*
X1338180Y131680D02*
X1574800Y368300D01*
X1287380Y131680D02*
X1338180D01*
X1282700Y127000D02*
X1287380Y131680D01*
X3797300Y292100D02*
X3962400Y127000D01*
X4178300D01*
X4711700D02*
X5067300D01*
X1699260Y5638800D02*
X2679700D01*
X2844800Y5803900D01*
D53*
X1206500Y5969000D02*
D03*
X5969000D02*
D03*
Y381000D02*
D03*
X381000D02*
D03*
D54*
X2032000Y1443000D02*
D03*
Y1143000D02*
D03*
X444500Y5778500D02*
D03*
X5189500Y5842000D02*
D03*
X3792500D02*
D03*
X1143000Y1143000D02*
D03*
Y843000D02*
D03*
X4318000Y1143000D02*
D03*
Y843000D02*
D03*
X5207000Y1143000D02*
D03*
Y1443000D02*
D03*
D55*
X1836000Y1743000D02*
D03*
Y543000D02*
D03*
X248500Y5178500D02*
D03*
Y6078500D02*
D03*
X4589500Y6038000D02*
D03*
X5489500Y6038000D02*
D03*
X3192500Y6038000D02*
D03*
X4092500D02*
D03*
X1339000Y1743000D02*
D03*
Y543000D02*
D03*
X4514000Y1743000D02*
D03*
Y543000D02*
D03*
X5011000Y543000D02*
D03*
Y1743000D02*
D03*
D56*
X2032000Y843000D02*
D03*
X444500Y5478500D02*
D03*
X1143000Y1443000D02*
D03*
X4318000D02*
D03*
X5207000Y843000D02*
D03*
D57*
X6032500Y4191000D02*
D03*
D58*
Y4318000D02*
D03*
Y4572000D02*
D03*
X6032500Y4699000D02*
D03*
X5905501Y4191000D02*
D03*
X5905500Y4318001D02*
D03*
X5905500Y4445000D02*
D03*
X5905500Y4572000D02*
D03*
Y4699000D02*
D03*
X6032500Y4445000D02*
D03*
D59*
X4889500Y5842000D02*
D03*
X3492500D02*
D03*
D60*
X6006600Y3429000D02*
D03*
D61*
X5791600Y3709000D02*
D03*
Y3149000D02*
D03*
D62*
X3543300Y1790700D02*
D03*
X2997200Y1638300D02*
D03*
X2346960Y3032760D02*
D03*
X1572260Y4884420D02*
D03*
X3568700Y5072380D02*
D03*
X3416300Y4767580D02*
D03*
X3098800Y2921000D02*
D03*
X3111500Y2438400D02*
D03*
X2882900D02*
D03*
X2997200D02*
D03*
X2598009Y1986280D02*
D03*
X3263900Y2057400D02*
D03*
X3517900D02*
D03*
X3644900D02*
D03*
X3441700Y2951480D02*
D03*
X3439160Y3030220D02*
D03*
X3187700Y2903220D02*
D03*
X2908300Y2898140D02*
D03*
X2905760Y2976880D02*
D03*
X2885440Y2080260D02*
D03*
X2758440Y2042160D02*
D03*
X2644140Y2113280D02*
D03*
X3954780Y4030980D02*
D03*
X1727200Y6032500D02*
D03*
X2717800Y698500D02*
D03*
X2895600Y3924300D02*
D03*
X3276600Y1587500D02*
D03*
X3594100Y1308100D02*
D03*
X4445000Y1981200D02*
D03*
X3492500Y3911600D02*
D03*
X3721100D02*
D03*
X495300Y3670300D02*
D03*
X368300Y3606800D02*
D03*
Y4064000D02*
D03*
X213360Y4610100D02*
D03*
X3746500Y3530600D02*
D03*
X2540000Y2921000D02*
D03*
X3390900Y2057400D02*
D03*
X2296160Y1899920D02*
D03*
Y1996440D02*
D03*
X2230120Y2052320D02*
D03*
Y2138680D02*
D03*
X2461260Y1010920D02*
D03*
X2611520Y2603500D02*
D03*
X3746500Y2860040D02*
D03*
X3472180Y2618740D02*
D03*
X3401060D02*
D03*
X3329940D02*
D03*
X2200040Y254000D02*
D03*
X1282700Y127000D02*
D03*
X1320800Y254000D02*
D03*
X2171700Y127000D02*
D03*
X3492500Y508000D02*
D03*
X3365500Y571500D02*
D03*
X3048000D02*
D03*
X2921000Y508000D02*
D03*
X4178300Y127000D02*
D03*
X5067300D02*
D03*
X4991100Y254000D02*
D03*
X4102100D02*
D03*
X3352800Y1003300D02*
D03*
Y774700D02*
D03*
X2794000Y1308100D02*
D03*
X3835400Y1003300D02*
D03*
X5334000Y1981200D02*
D03*
X1016000D02*
D03*
X1905000D02*
D03*
X4013200Y3053080D02*
D03*
X5054600Y2702560D02*
D03*
X5044440Y2951480D02*
D03*
X4521200Y2491740D02*
D03*
X4282440Y2496820D02*
D03*
X2616200Y2755900D02*
D03*
X3931920Y4780280D02*
D03*
Y4549140D02*
D03*
X4130040Y5196840D02*
D03*
X2029460Y2692400D02*
D03*
X2428240Y3134360D02*
D03*
X2294031Y3276600D02*
D03*
X2428240Y3225800D02*
D03*
X2324100Y3416300D02*
D03*
X2603500Y3482340D02*
D03*
X2331720Y5171440D02*
D03*
X2844800Y5803900D02*
D03*
X1699260Y5638800D02*
D03*
X2677160Y6057900D02*
D03*
X1160780Y5227320D02*
D03*
X1638300Y5842000D02*
D03*
X1808480Y5476240D02*
D03*
D63*
X5448300Y2743200D02*
D03*
X1148080Y4551680D02*
D03*
X5948680Y3647440D02*
D03*
X2989580Y4719320D02*
D03*
X960120Y4998720D02*
D03*
X1036320Y4516120D02*
D03*
X934052Y4551198D02*
D03*
X2992120Y4411980D02*
D03*
X2298700Y5925820D02*
D03*
X2171700Y5732780D02*
D03*
X2298700D02*
D03*
X2171700Y5829300D02*
D03*
X2298700D02*
D03*
X2171700Y5925820D02*
D03*
%TF.MD5,05ec8616e207747ce5db68fc352c5e84*%
M02*
