%TF.GenerationSoftware,Altium Limited,Altium Designer,24.5.2 (23)*%
G04 Layer_Color=0*
%FSLAX45Y45*%
%MOMM*%
%TF.SameCoordinates,627A3E5C-85DC-498E-B9C8-82595492641C*%
%TF.FilePolarity,Positive*%
%TF.FileFunction,Plated,1,4,PTH,Drill*%
%TF.Part,Single*%
G01*
G75*
%TA.AperFunction,OtherDrill,Pad Free-MH (12.065mm,59.69mm)*%
%ADD93C,3.40000*%
%TA.AperFunction,ComponentDrill*%
%ADD94C,1.02000*%
%ADD95C,0.65000*%
%TA.AperFunction,OtherDrill,Pad Free-MH (59.69mm,59.69mm)*%
%ADD96C,3.40000*%
%TA.AperFunction,OtherDrill,Pad Free-MH (59.69mm,3.81mm)*%
%ADD97C,3.40000*%
%TA.AperFunction,OtherDrill,Pad Free-MH (3.81mm,3.81mm)*%
%ADD98C,3.40000*%
%TA.AperFunction,ComponentDrill*%
%ADD99C,1.02000*%
%ADD100O,0.50000X1.60000*%
%ADD101O,0.50000X1.20000*%
%TA.AperFunction,ViaDrill,NotFilled*%
%ADD102C,0.30000*%
%ADD103C,0.45720*%
D93*
X1206500Y5969000D02*
D03*
D94*
X2032000Y1443000D02*
D03*
Y1143000D02*
D03*
Y843000D02*
D03*
X444500Y5478500D02*
D03*
Y5778500D02*
D03*
X1143000Y1443000D02*
D03*
Y1143000D02*
D03*
Y843000D02*
D03*
X4318000Y1443000D02*
D03*
Y1143000D02*
D03*
Y843000D02*
D03*
X5207000Y843000D02*
D03*
Y1143000D02*
D03*
Y1443000D02*
D03*
D95*
X6032500Y4191000D02*
D03*
Y4318000D02*
D03*
Y4572000D02*
D03*
X6032500Y4699000D02*
D03*
X5905501Y4191000D02*
D03*
X5905500Y4318001D02*
D03*
X5905500Y4445000D02*
D03*
X5905500Y4572000D02*
D03*
Y4699000D02*
D03*
X6032500Y4445000D02*
D03*
D96*
X5969000Y5969000D02*
D03*
D97*
Y381000D02*
D03*
D98*
X381000D02*
D03*
D99*
X4889500Y5842000D02*
D03*
X5189500D02*
D03*
X3492500D02*
D03*
X3792500D02*
D03*
D100*
X6006600Y3429000D02*
D03*
D101*
X5791600Y3709000D02*
D03*
Y3149000D02*
D03*
D102*
X3543300Y1790700D02*
D03*
X2997200Y1638300D02*
D03*
X2346960Y3032760D02*
D03*
X1572260Y4884420D02*
D03*
X3568700Y5072380D02*
D03*
X3416300Y4767580D02*
D03*
X3098800Y2921000D02*
D03*
X3111500Y2438400D02*
D03*
X2882900D02*
D03*
X2997200D02*
D03*
X2598009Y1986280D02*
D03*
X3263900Y2057400D02*
D03*
X3517900D02*
D03*
X3644900D02*
D03*
X3441700Y2951480D02*
D03*
X3439160Y3030220D02*
D03*
X3187700Y2903220D02*
D03*
X2908300Y2898140D02*
D03*
X2905760Y2976880D02*
D03*
X2885440Y2080260D02*
D03*
X2758440Y2042160D02*
D03*
X2644140Y2113280D02*
D03*
X3954780Y4030980D02*
D03*
X1727200Y6032500D02*
D03*
X2717800Y698500D02*
D03*
X2895600Y3924300D02*
D03*
X3276600Y1587500D02*
D03*
X3594100Y1308100D02*
D03*
X4445000Y1981200D02*
D03*
X3492500Y3911600D02*
D03*
X3721100D02*
D03*
X495300Y3670300D02*
D03*
X368300Y3606800D02*
D03*
Y4064000D02*
D03*
X213360Y4610100D02*
D03*
X3746500Y3530600D02*
D03*
X2540000Y2921000D02*
D03*
X3390900Y2057400D02*
D03*
X2296160Y1899920D02*
D03*
Y1996440D02*
D03*
X2230120Y2052320D02*
D03*
Y2138680D02*
D03*
X2461260Y1010920D02*
D03*
X2611520Y2603500D02*
D03*
X3746500Y2860040D02*
D03*
X3472180Y2618740D02*
D03*
X3401060D02*
D03*
X3329940D02*
D03*
X2200040Y254000D02*
D03*
X1282700Y127000D02*
D03*
X1320800Y254000D02*
D03*
X2171700Y127000D02*
D03*
X3492500Y508000D02*
D03*
X3365500Y571500D02*
D03*
X3048000D02*
D03*
X2921000Y508000D02*
D03*
X4178300Y127000D02*
D03*
X5067300D02*
D03*
X4991100Y254000D02*
D03*
X4102100D02*
D03*
X3352800Y1003300D02*
D03*
Y774700D02*
D03*
X2794000Y1308100D02*
D03*
X3835400Y1003300D02*
D03*
X5334000Y1981200D02*
D03*
X1016000D02*
D03*
X1905000D02*
D03*
X4013200Y3053080D02*
D03*
X5054600Y2702560D02*
D03*
X5044440Y2951480D02*
D03*
X4521200Y2491740D02*
D03*
X4282440Y2496820D02*
D03*
X2616200Y2755900D02*
D03*
X3931920Y4780280D02*
D03*
Y4549140D02*
D03*
X4130040Y5196840D02*
D03*
X2029460Y2692400D02*
D03*
X2428240Y3134360D02*
D03*
X2294031Y3276600D02*
D03*
X2428240Y3225800D02*
D03*
X2324100Y3416300D02*
D03*
X2603500Y3482340D02*
D03*
X2331720Y5171440D02*
D03*
X2844800Y5803900D02*
D03*
X1699260Y5638800D02*
D03*
X2677160Y6057900D02*
D03*
X1160780Y5227320D02*
D03*
X1638300Y5842000D02*
D03*
X1808480Y5476240D02*
D03*
D103*
X5448300Y2743200D02*
D03*
X1148080Y4551680D02*
D03*
X5948680Y3647440D02*
D03*
X2989580Y4719320D02*
D03*
X960120Y4998720D02*
D03*
X1036320Y4516120D02*
D03*
X934052Y4551198D02*
D03*
X2992120Y4411980D02*
D03*
X2298700Y5925820D02*
D03*
X2171700Y5732780D02*
D03*
X2298700D02*
D03*
X2171700Y5829300D02*
D03*
X2298700D02*
D03*
X2171700Y5925820D02*
D03*
%TF.MD5,3d60a724008c3aea51ef3bcb8f64278f*%
M02*
